# File units = meters
mtllib Subwoofer.mtl
g Subwoofer
v 0.179448 0.848265 0.119571 
v 0.154685 0.893651 0.0623253 
v -0.179448 0.848265 0.119571 
v -0.228976 0.757491 0.234061 
v -0.32803 0.575945 0.463042 
v 0.52614 0.212852 0.921004 
v 0.32803 0.575945 0.463042 
v 0.228976 0.757491 0.234061 
v 0.130308 0.938329 0.00597446 
v -0.133016 0.933365 0.0122357 
v -0.136112 0.927691 0.0193913 
v -0.130018 0.938861 0.00530361 
v 0.130114 0.938683 0.00552723 
v -0.142303 0.916345 0.0337026 
v -0.130308 0.938329 0.00597446 
v -0.130501 0.937974 0.00642169 
v -0.129921 0.939038 0.00508 
v 0.142303 0.916345 0.0337026 
v 0.136112 0.927691 0.0193913 
v -0.131469 0.936201 0.00865783 
v -0.130695 0.93762 0.00686891 
v 0.130018 0.938861 0.00530361 
v -0.130114 0.938683 0.00552723 
v -0.154685 0.893651 0.0623253 
v 0.130695 0.93762 0.00686891 
v 0.130501 0.937974 0.00642169 
v 0.133016 0.933365 0.0122357 
v 0.131469 0.936201 0.00865783 
v -0.52614 0.212852 0.921004 
v 0.129921 0.939038 0.00508 
v 0.129921 0.939038 0.00492125 
v -0.129921 0.939038 0.00492125 
v -0.129921 0.939038 0.0047625 
v 0.129921 0.939038 0.0047625 
v -0.129921 0.939038 0.00460375 
v 0.129921 0.939038 0.00460375 
v -0.129921 0.939038 0.004445 
v 0.129921 0.939038 0.004445 
v -0.129921 0.939038 0.00428625 
v 0.129921 0.939038 0.00428625 
v 0.129921 0.939038 0.0041275 
v -0.129921 0.939038 0.0041275 
v 0.129921 0.939038 0.00381 
v -0.129921 0.939038 0.00381 
v 0.129921 0.939038 0.0034925 
v -0.129921 0.939038 0.0034925 
v 0.129921 0.939038 0.003175 
v -0.129921 0.939038 0.003175 
v 0.129921 0.939038 0.0028575 
v -0.129921 0.939038 0.0028575 
v 0.129921 0.939038 0.00254 
v -0.129921 0.939038 0.00254 
v 0.593916 0.575945 0.00127 
v 0.361918 0.757492 0.001905 
v 0.792025 0.212852 0.460502 
v 1.05791 0.212852 -2.71051e-20 
v 0.24592 0.848265 0.0022225 
v 0.18792 0.893651 0.00238125 
v 0.158921 0.916345 0.00246063 
v 0.144421 0.927691 0.00250031 
v 0.137171 0.933365 0.00252016 
v 0.133546 0.936201 0.00253008 
v 0.131733 0.93762 0.00253504 
v 0.130827 0.938329 0.00253752 
v 0.460973 0.575945 0.232156 
v 0.328683 0.757492 0.059944 
v 0.394502 0.575945 0.347599 
v 0.245594 0.757492 0.205042 
v 0.262211 0.757492 0.176022 
v 0.295447 0.757492 0.117983 
v 0.229302 0.848265 0.0315595 
v 0.212684 0.848265 0.0608965 
v 0.179611 0.893651 0.0173673 
v 0.171302 0.893651 0.0323533 
v 0.154766 0.916345 0.0102711 
v 0.150612 0.916345 0.0180816 
v 0.142344 0.927691 0.00672306 
v 0.136132 0.933365 0.00494903 
v 0.135094 0.933365 0.00737791 
v 0.133027 0.936201 0.00406202 
v 0.132507 0.936201 0.00559395 
v 0.131474 0.93762 0.00361851 
v 0.131214 0.93762 0.00470198 
v 0.130697 0.938329 0.00339675 
v 0.130568 0.938329 0.00425599 
v 0.130277 0.938683 0.00365944 
v 0.130309 0.938683 0.00328588 
v 0.130762 0.938329 0.00296714 
v 0.278829 0.757492 0.147003 
v 0.187757 0.848265 0.104902 
v 0.196066 0.848265 0.0902335 
v 0.158839 0.893651 0.0548323 
v 0.14438 0.916345 0.0297974 
v 0.137151 0.927691 0.0172799 
v 0.133536 0.933365 0.0110212 
v 0.131728 0.936201 0.00789186 
v 0.130825 0.93762 0.00632718 
v 0.130599 0.937974 0.00593601 
v 0.130373 0.938329 0.00554484 
v 0.130131 0.938683 0.00534045 
v 0.130147 0.938683 0.00515367 
v 0.130026 0.938861 0.00513085 
v 0.130034 0.938861 0.00495808 
v 0.162994 0.893651 0.0473393 
v 0.146457 0.916345 0.0258921 
v 0.138189 0.927691 0.0151686 
v 0.134055 0.933365 0.00980678 
v 0.131988 0.936201 0.00712589 
v 0.130955 0.93762 0.00578545 
v 0.130438 0.938329 0.00511522 
v 0.130163 0.938683 0.00496689 
v 0.130179 0.938683 0.00478011 
v 0.130042 0.938861 0.00478532 
v 0.204375 0.848265 0.075565 
v 0.167148 0.893651 0.0398463 
v 0.148535 0.916345 0.0219869 
v 0.139228 0.927691 0.0130572 
v 0.134574 0.933365 0.00859234 
v 0.132248 0.936201 0.00635992 
v 0.131084 0.93762 0.00524371 
v 0.130503 0.938329 0.00468561 
v 0.130196 0.938683 0.00459333 
v 0.130212 0.938683 0.00440655 
v 0.140266 0.927691 0.0109458 
v 0.130244 0.938683 0.00403299 
v -0.361918 0.757492 0.001905 
v -0.792025 0.212852 0.460502 
v -0.593915 0.575945 0.00127 
v -0.24592 0.848265 0.0022225 
v -0.18792 0.893651 0.00238125 
v -0.158921 0.916345 0.00246062 
v -0.144421 0.927691 0.00250031 
v -0.137171 0.933365 0.00252016 
v -0.133546 0.936201 0.00253008 
v -0.131733 0.93762 0.00253504 
v -0.130827 0.938329 0.00253752 
v -1.05791 0.212852 -2.76472e-17 
v -0.460973 0.575945 0.232156 
v -0.262211 0.757491 0.176022 
v -0.527444 0.575945 0.116713 
v -0.328683 0.757491 0.059944 
v -0.295447 0.757492 0.117983 
v -0.196066 0.848265 0.0902335 
v -0.204375 0.848265 0.075565 
v -0.187757 0.848265 0.104902 
v -0.212684 0.848265 0.0608965 
v -0.167148 0.893651 0.0398463 
v -0.162994 0.893651 0.0473393 
v -0.171302 0.893651 0.0323533 
v -0.148535 0.916345 0.0219869 
v -0.150612 0.916345 0.0180816 
v -0.139228 0.927691 0.0130572 
v -0.140266 0.927691 0.0109458 
v -0.134574 0.933365 0.00859234 
v -0.135094 0.933365 0.00737791 
v -0.132248 0.936201 0.00635992 
v -0.132507 0.936201 0.00559395 
v -0.131084 0.93762 0.00524371 
v -0.131214 0.93762 0.00470198 
v -0.130503 0.938329 0.00468561 
v -0.130568 0.938329 0.00425599 
v -0.130212 0.938683 0.00440655 
v -0.130244 0.938683 0.00403299 
v -0.146457 0.916345 0.0258921 
v -0.138189 0.927691 0.0151686 
v -0.134055 0.933365 0.00980678 
v -0.131988 0.936201 0.00712589 
v -0.130955 0.93762 0.00578545 
v -0.130438 0.938329 0.00511522 
v -0.130179 0.938683 0.00478011 
v -0.130196 0.938683 0.00459333 
v -0.158839 0.893651 0.0548323 
v -0.14438 0.916345 0.0297974 
v -0.137151 0.927691 0.0172799 
v -0.133536 0.933365 0.0110212 
v -0.131728 0.936201 0.00789186 
v -0.130825 0.93762 0.00632718 
v -0.130599 0.937974 0.00593601 
v -0.130373 0.938329 0.00554484 
v -0.130147 0.938683 0.00515367 
v -0.130163 0.938683 0.00496689 
v -0.130042 0.938861 0.00478532 
v -0.130034 0.938861 0.00495808 
v -0.130131 0.938683 0.00534045 
v -0.130026 0.938861 0.00513085 
v -0.229302 0.848265 0.0315595 
v -0.179611 0.893651 0.0173672 
v -0.154766 0.916345 0.0102711 
v -0.142344 0.927691 0.00672306 
v -0.136132 0.933365 0.00494903 
v -0.133027 0.936201 0.00406202 
v -0.131474 0.93762 0.00361851 
v -0.130697 0.938329 0.00339675 
v -0.130762 0.938329 0.00296714 
v -0.130309 0.938683 0.00328588 
v -0.130277 0.938683 0.00365944 
v 1.05791 0 0 
v -1.05791 0 0 
v 0.52614 0 0.921004 
v -0.52614 0 0.921004 
vn 0 0.783596 0.621271 
vn 0 1 0 
vn 0.581801 0.741137 0.334997 
vn 0.581296 0.741665 0.334706 
vn 0.581649 0.742121 0.333077 
vn 0.582152 0.741597 0.333366 
vn 0.582054 0.740873 0.335143 
vn 0.583412 0.740281 0.334087 
vn 0.583665 0.740017 0.334232 
vn 0.58316 0.740545 0.333943 
vn 0.581371 0.741169 0.335672 
vn 0.581118 0.741434 0.335526 
vn 0.582307 0.740608 0.335288 
vn 0.582656 0.741072 0.333654 
vn 0.583339 0.741978 0.33043 
vn 0.582339 0.743015 0.329864 
vn 0.58434 0.740937 0.330997 
vn 0.585634 0.742699 0.324702 
vn 0.587613 0.740652 0.325799 
vn 0.58993 0.74399 0.313787 
vn 0.593798 0.740031 0.315845 
vn 0.597498 0.746062 0.293917 
vn 0.609467 0.748753 0.260615 
vn 0.622954 0.735506 0.266382 
vn 0.62538 0.750971 0.211996 
vn 0.648149 0.729129 0.219714 
vn 0.642058 0.751056 0.153869 
vn 0.676313 0.718562 0.162079 
vn 0.655522 0.748653 0.0990466 
vn 0.700753 0.705503 0.105881 
vn 0.690412 0.720925 0.0599865 
vn 0.664248 0.745281 0.0577132 
vn 0.705945 0.708267 0 
vn 0.738959 0.67375 0 
vn 0.674408 0.738359 0 
vn 0.583662 0.744726 0.323608 
vn 0.586091 0.747872 0.311746 
vn 0.59022 0.753223 0.290337 
vn 0.596333 0.761159 0.254999 
vn 0.603583 0.7706 0.204607 
vn 0.609903 0.77888 0.146163 
vn 0.634202 0.767206 0.0958253 
vn 0.613775 0.784015 0.0927388 
vn 0.644498 0.764606 0 
vn 0.616273 0.787532 0 
vn 0.582908 0.740808 0.333798 
vn 0.585846 0.739364 0.33185 
vn 0.586349 0.738837 0.332135 
vn 0.585344 0.73989 0.331566 
vn 0.590598 0.737542 0.327454 
vn 0.591597 0.736494 0.328008 
vn 0.599657 0.733945 0.318961 
vn 0.601625 0.731876 0.320008 
vn 0.616163 0.726962 0.303099 
vn 0.619975 0.722926 0.304974 
vn 0.643826 0.713929 0.275307 
vn 0.650948 0.706248 0.278353 
vn 0.684023 0.691626 0.231875 
vn 0.696399 0.677717 0.23607 
vn 0.731236 0.65923 0.175241 
vn 0.750304 0.63617 0.179811 
vn 0.750183 0.643898 0.150399 
vn 0.77203 0.616452 0.154779 
vn 0.774059 0.622217 0.116957 
vn 0.819417 0.568759 0.0711952 
vn 0.834249 0.546602 0.0724839 
vn 0.80456 0.589743 0.0699043 
vn 0.79941 0.588518 0.120788 
vn 0.838976 0.542741 0.0394038 
vn 0.854965 0.517129 0.0401548 
vn 0.822864 0.566923 0.0386471 
vn 0.860748 0.509032 0 
vn 0.877836 0.478961 0 
vn 0.843361 0.537348 0 
vn 0.589601 0.738584 0.326901 
vn 0.597697 0.735993 0.317919 
vn 0.612377 0.730925 0.301237 
vn 0.636785 0.721359 0.272296 
vn 0.671847 0.704806 0.227748 
vn 0.712508 0.68057 0.170753 
vn 0.749045 0.652781 0.113178 
vn 0.789736 0.609597 0.0686163 
vn 0.774997 0.628367 0.0673357 
vn 0.806716 0.589724 0.0378887 
vn 0.808193 0.588918 0 
vn 0.825804 0.563957 0 
vn 0.584842 0.740414 0.331281 
vn 0.588606 0.73962 0.32635 
vn 0.595744 0.738022 0.31688 
vn 0.608617 0.734815 0.299387 
vn 0.629827 0.728549 0.269321 
vn 0.659886 0.717295 0.223693 
vn 0.694184 0.700309 0.166361 
vn 0.724562 0.680459 0.109478 
vn 0.760388 0.6461 0.0660664 
vn 0.745946 0.662846 0.0648116 
vn 0.790624 0.612301 0 
vn 0.773184 0.634181 0 
vn 0.604884 0.738633 0.297551 
vn 0.717686 0.693569 0.0623562 
vn 0.581624 0.740905 0.335819 
vn -0.581801 0.741137 0.334997 
vn -0.582307 0.740608 0.335288 
vn -0.583665 0.740017 0.334232 
vn -0.58316 0.740545 0.333943 
vn -0.581549 0.741401 0.334852 
vn -0.582152 0.741597 0.333366 
vn -0.581649 0.742121 0.333077 
vn -0.581371 0.741169 0.335672 
vn -0.581624 0.740905 0.335819 
vn -0.581296 0.741665 0.334706 
vn -0.582656 0.741072 0.333654 
vn -0.585344 0.73989 0.331566 
vn -0.584842 0.740414 0.331281 
vn -0.586349 0.738837 0.332135 
vn -0.585846 0.739364 0.33185 
vn -0.58434 0.740937 0.330997 
vn -0.588606 0.73962 0.32635 
vn -0.589601 0.738584 0.326901 
vn -0.587613 0.740652 0.325799 
vn -0.595744 0.738022 0.31688 
vn -0.593798 0.740031 0.315845 
vn -0.608617 0.734815 0.299387 
vn -0.604884 0.738633 0.297551 
vn -0.629827 0.728549 0.269321 
vn -0.622954 0.735506 0.266382 
vn -0.659886 0.717295 0.223693 
vn -0.648149 0.729129 0.219714 
vn -0.694184 0.700309 0.166361 
vn -0.676313 0.718562 0.162079 
vn -0.724562 0.680459 0.109478 
vn -0.700753 0.705503 0.105881 
vn -0.745946 0.662846 0.0648116 
vn -0.717686 0.693569 0.0623562 
vn -0.773184 0.634181 0 
vn -0.597697 0.735993 0.317919 
vn -0.612377 0.730925 0.301237 
vn -0.636785 0.721359 0.272296 
vn -0.671847 0.704806 0.227748 
vn -0.712508 0.68057 0.170753 
vn -0.749045 0.652781 0.113178 
vn -0.774997 0.628367 0.0673357 
vn -0.760388 0.6461 0.0660664 
vn -0.790624 0.612301 0 
vn -0.808193 0.588918 0 
vn -0.590598 0.737542 0.327454 
vn -0.591597 0.736494 0.328008 
vn -0.599657 0.733945 0.318961 
vn -0.616163 0.726962 0.303099 
vn -0.643826 0.713929 0.275307 
vn -0.684023 0.691626 0.231875 
vn -0.731236 0.65923 0.175241 
vn -0.750183 0.643898 0.150399 
vn -0.774059 0.622217 0.116957 
vn -0.80456 0.589743 0.0699043 
vn -0.789736 0.609597 0.0686163 
vn -0.806716 0.589724 0.0378887 
vn -0.822864 0.566923 0.0386471 
vn -0.843361 0.537348 0 
vn -0.601625 0.731876 0.320008 
vn -0.619975 0.722926 0.304974 
vn -0.650948 0.706248 0.278353 
vn -0.696399 0.677717 0.23607 
vn -0.750304 0.63617 0.179811 
vn -0.77203 0.616452 0.154779 
vn -0.79941 0.588518 0.120788 
vn -0.834249 0.546602 0.0724839 
vn -0.819417 0.568759 0.0711952 
vn -0.838976 0.542741 0.0394038 
vn -0.854965 0.517129 0.0401548 
vn -0.860748 0.509032 0 
vn -0.877836 0.478961 0 
vn -0.583339 0.741978 0.33043 
vn -0.582339 0.743015 0.329864 
vn -0.585634 0.742699 0.324702 
vn -0.583662 0.744726 0.323608 
vn -0.58993 0.74399 0.313787 
vn -0.586091 0.747872 0.311746 
vn -0.597498 0.746062 0.293917 
vn -0.59022 0.753223 0.290337 
vn -0.609467 0.748753 0.260615 
vn -0.596333 0.761159 0.254999 
vn -0.62538 0.750971 0.211996 
vn -0.603583 0.7706 0.204607 
vn -0.642058 0.751056 0.153869 
vn -0.609903 0.77888 0.146163 
vn -0.655522 0.748653 0.0990466 
vn -0.634202 0.767206 0.0958253 
vn -0.613775 0.784015 0.0927388 
vn -0.644498 0.764606 0 
vn -0.664248 0.745281 0.0577132 
vn -0.690412 0.720925 0.0599865 
vn -0.705945 0.708267 0 
vn -0.738959 0.67375 0 
vn -0.674408 0.738359 0 
vn -0.616273 0.787532 0 
vn -0.825804 0.563957 0 
vn -0.581118 0.741434 0.335526 
vn 0 0.00349771 -0.999994 
vn 0 0 -1 
vn 0 -1 0 
vn 0.866014 0 0.50002 
vn 0 0 1 
vn -0.866014 0 0.50002 
usemtl 0.792157_0.819608_0.933333_0.000000_0.000000
o mesh0
f 1//1 2//1 3//1 
f 3//1 4//1 1//1 
f 5//1 6//1 7//1 
f 4//1 8//1 1//1 
f 9//1 10//1 11//1 
f 12//1 9//1 13//1 
f 7//1 4//1 5//1 
f 4//1 7//1 8//1 
f 11//1 14//1 9//1 
f 9//1 15//1 16//1 
f 13//1 17//1 12//1 
f 3//1 18//1 19//1 
f 2//1 18//1 3//1 
f 9//1 20//1 10//1 
f 16//1 21//1 9//1 
f 21//1 20//1 9//1 
f 17//1 13//1 22//1 
f 12//1 23//1 9//1 
f 24//1 25//1 26//1 
f 27//1 28//1 24//1 
f 5//1 29//1 6//1 
f 23//1 15//1 9//1 
f 22//1 30//1 17//1 
f 24//1 28//1 25//1 
f 19//1 27//1 3//1 
f 24//1 3//1 27//1 
f 26//1 9//1 24//1 
f 14//1 24//1 9//1 
o mesh1
f 30//2 31//2 32//2 
f 33//2 32//2 31//2 
f 31//2 34//2 33//2 
f 35//2 33//2 34//2 
f 34//2 36//2 35//2 
f 37//2 35//2 36//2 
f 36//2 38//2 37//2 
f 39//2 37//2 38//2 
f 38//2 40//2 39//2 
f 39//2 40//2 41//2 
f 41//2 42//2 39//2 
f 42//2 41//2 43//2 
f 43//2 44//2 42//2 
f 44//2 43//2 45//2 
f 45//2 46//2 44//2 
f 46//2 45//2 47//2 
f 47//2 48//2 46//2 
f 48//2 47//2 49//2 
f 49//2 50//2 48//2 
f 51//2 52//2 50//2 
f 50//2 49//2 51//2 
f 32//2 17//2 30//2 
o mesh2
f 65//3 53//4 54//5 
f 54//5 66//6 65//3 
f 67//7 68//8 8//9 
f 67//7 69//10 68//8 
f 55//11 56//12 53//4 
f 55//11 67//7 7//13 
f 55//11 65//3 67//7 
f 70//14 66//6 71//15 
f 66//6 54//5 57//16 
f 72//17 71//15 73//18 
f 74//19 73//18 75//20 
f 76//21 75//20 77//22 
f 77//22 78//23 79//24 
f 78//23 80//25 81//26 
f 80//25 82//27 83//28 
f 82//27 84//29 85//30 
f 85//30 84//29 86//31 
f 84//29 87//32 86//31 
f 86//31 45//33 43//34 
f 87//32 47//35 45//33 
f 71//15 57//16 58//36 
f 73//18 58//36 59//37 
f 75//20 59//37 60//38 
f 77//22 60//38 61//39 
f 78//23 61//39 62//40 
f 80//25 62//40 63//41 
f 82//27 63//41 88//42 
f 63//41 64//43 88//42 
f 49//44 47//35 87//32 
f 87//32 88//42 49//44 
f 64//43 51//45 49//44 
f 65//3 89//46 69//10 
f 65//3 70//14 89//46 
f 68//8 90//47 1//48 
f 69//10 91//49 90//47 
f 90//47 92//50 2//51 
f 92//50 93//52 18//53 
f 93//52 94//54 19//55 
f 94//54 95//56 27//57 
f 95//56 96//58 28//59 
f 96//58 97//60 25//61 
f 97//60 98//62 26//63 
f 99//64 100//65 13//66 
f 99//64 101//67 100//65 
f 98//62 99//64 9//68 
f 100//65 102//69 22//70 
f 101//67 103//71 102//69 
f 102//69 31//72 30//73 
f 103//71 34//74 31//72 
f 91//49 104//75 92//50 
f 104//75 105//76 93//52 
f 105//76 106//77 94//54 
f 106//77 107//78 95//56 
f 107//78 108//79 96//58 
f 108//79 109//80 97//60 
f 109//80 110//81 99//64 
f 99//64 98//62 109//80 
f 110//81 111//82 101//67 
f 110//81 112//83 111//82 
f 111//82 113//84 103//71 
f 38//85 36//86 113//84 
f 113//84 112//83 38//85 
f 113//84 36//86 34//74 
f 89//46 114//87 91//49 
f 70//14 72//17 114//87 
f 114//87 115//88 104//75 
f 115//88 116//89 105//76 
f 116//89 117//90 106//77 
f 117//90 118//91 107//78 
f 118//91 119//92 108//79 
f 119//92 120//93 109//80 
f 120//93 121//94 110//81 
f 121//94 122//95 112//83 
f 121//94 123//96 122//95 
f 122//95 40//97 38//85 
f 123//96 41//98 40//97 
f 72//17 74//19 115//88 
f 74//19 76//21 116//89 
f 76//21 124//99 117//90 
f 124//99 79//24 118//91 
f 79//24 81//26 119//92 
f 81//26 83//28 120//93 
f 83//28 85//30 121//94 
f 85//30 125//100 123//96 
f 125//100 43//34 41//98 
f 41//98 123//96 125//100 
f 123//96 121//94 85//30 
f 121//94 120//93 83//28 
f 120//93 119//92 81//26 
f 119//92 118//91 79//24 
f 118//91 117//90 124//99 
f 117//90 116//89 76//21 
f 116//89 115//88 74//19 
f 115//88 114//87 72//17 
f 40//97 122//95 123//96 
f 38//85 112//83 122//95 
f 112//83 110//81 121//94 
f 110//81 109//80 120//93 
f 109//80 108//79 119//92 
f 108//79 107//78 118//91 
f 107//78 106//77 117//90 
f 106//77 105//76 116//89 
f 105//76 104//75 115//88 
f 104//75 91//49 114//87 
f 114//87 89//46 70//14 
f 91//49 69//10 89//46 
f 34//74 103//71 113//84 
f 113//84 111//82 112//83 
f 103//71 101//67 111//82 
f 101//67 99//64 110//81 
f 98//62 97//60 109//80 
f 97//60 96//58 108//79 
f 96//58 95//56 107//78 
f 95//56 94//54 106//77 
f 94//54 93//52 105//76 
f 93//52 92//50 104//75 
f 92//50 90//47 91//49 
f 31//72 102//69 103//71 
f 30//73 22//70 102//69 
f 102//69 100//65 101//67 
f 22//70 13//66 100//65 
f 9//68 26//63 98//62 
f 13//66 9//68 99//64 
f 26//63 25//61 97//60 
f 25//61 28//59 96//58 
f 28//59 27//57 95//56 
f 27//57 19//55 94//54 
f 19//55 18//53 93//52 
f 18//53 2//51 92//50 
f 2//51 1//48 90//47 
f 90//47 68//8 69//10 
f 1//48 8//9 68//8 
f 69//10 67//7 65//3 
f 49//44 88//42 64//43 
f 87//32 84//29 88//42 
f 88//42 84//29 82//27 
f 63//41 82//27 80//25 
f 62//40 80//25 78//23 
f 61//39 78//23 77//22 
f 60//38 77//22 75//20 
f 59//37 75//20 73//18 
f 58//36 73//18 71//15 
f 45//33 86//31 87//32 
f 43//34 125//100 86//31 
f 86//31 125//100 85//30 
f 85//30 83//28 82//27 
f 83//28 81//26 80//25 
f 81//26 79//24 78//23 
f 79//24 124//99 77//22 
f 77//22 124//99 76//21 
f 75//20 76//21 74//19 
f 73//18 74//19 72//17 
f 57//16 71//15 66//6 
f 71//15 72//17 70//14 
f 7//13 6//101 55//11 
f 53//4 65//3 55//11 
f 8//9 7//13 67//7 
f 66//6 70//14 65//3 
o mesh3
f 138//102 5//103 4//104 
f 4//104 139//105 138//102 
f 140//106 141//107 126//108 
f 127//109 29//110 5//103 
f 127//109 140//106 128//111 
f 127//109 138//102 140//106 
f 142//112 139//105 143//113 
f 143//113 144//114 142//112 
f 139//105 4//104 3//115 
f 3//115 145//116 139//105 
f 146//117 144//114 147//118 
f 144//114 143//113 148//119 
f 149//120 147//118 150//121 
f 151//122 150//121 152//123 
f 153//124 152//123 154//125 
f 155//126 154//125 156//127 
f 157//128 156//127 158//129 
f 159//130 158//129 160//131 
f 161//132 160//131 162//133 
f 163//134 162//133 42//135 
f 147//118 148//119 164//136 
f 150//121 164//136 165//137 
f 152//123 165//137 166//138 
f 154//125 166//138 167//139 
f 156//127 167//139 168//140 
f 158//129 168//140 169//141 
f 160//131 169//141 170//142 
f 170//142 171//143 160//131 
f 162//133 171//143 39//144 
f 171//143 170//142 37//145 
f 143//113 145//116 172//146 
f 145//116 3//115 24//147 
f 148//119 172//146 173//148 
f 164//136 173//148 174//149 
f 165//137 174//149 175//150 
f 166//138 175//150 176//151 
f 167//139 176//151 177//152 
f 168//140 178//153 179//154 
f 168//140 177//152 178//153 
f 169//141 179//154 180//155 
f 180//155 181//156 169//141 
f 37//145 170//142 182//157 
f 170//142 181//156 182//157 
f 181//156 180//155 183//158 
f 182//157 183//158 33//159 
f 172//146 24//147 14//160 
f 173//148 14//160 11//161 
f 174//149 11//161 10//162 
f 175//150 10//162 20//163 
f 176//151 20//163 21//164 
f 177//152 21//164 16//165 
f 179//154 15//166 23//167 
f 23//167 184//168 179//154 
f 178//153 16//165 15//166 
f 180//155 184//168 185//169 
f 184//168 23//167 12//170 
f 183//158 185//169 32//171 
f 185//169 12//170 17//172 
f 138//102 142//112 141//107 
f 141//107 186//173 129//174 
f 186//173 187//175 130//176 
f 187//175 188//177 131//178 
f 188//177 189//179 132//180 
f 189//179 190//181 133//182 
f 190//181 191//183 134//184 
f 191//183 192//185 135//186 
f 192//185 193//187 194//188 
f 194//188 135//186 192//185 
f 136//189 194//188 50//190 
f 50//190 194//188 195//191 
f 194//188 193//187 195//191 
f 142//112 146//117 186//173 
f 146//117 149//120 187//175 
f 149//120 151//122 188//177 
f 151//122 153//124 189//179 
f 189//179 153//124 155//126 
f 190//181 155//126 157//128 
f 191//183 157//128 159//130 
f 192//185 159//130 161//132 
f 161//132 163//134 196//192 
f 196//192 193//187 161//132 
f 195//191 196//192 46//193 
f 196//192 163//134 44//194 
f 44//194 46//193 196//192 
f 46//193 48//195 195//191 
f 196//192 195//191 193//187 
f 161//132 193//187 192//185 
f 159//130 192//185 191//183 
f 157//128 191//183 190//181 
f 155//126 190//181 189//179 
f 189//179 188//177 151//122 
f 188//177 187//175 149//120 
f 187//175 186//173 146//117 
f 186//173 141//107 142//112 
f 195//191 48//195 50//190 
f 50//190 52//196 136//189 
f 194//188 136//189 135//186 
f 135//186 134//184 191//183 
f 134//184 133//182 190//181 
f 133//182 132//180 189//179 
f 132//180 131//178 188//177 
f 131//178 130//176 187//175 
f 130//176 129//174 186//173 
f 129//174 126//108 141//107 
f 141//107 140//106 138//102 
f 17//172 32//171 185//169 
f 32//171 33//159 183//158 
f 12//170 185//169 184//168 
f 185//169 183//158 180//155 
f 15//166 179//154 178//153 
f 184//168 180//155 179//154 
f 16//165 178//153 177//152 
f 21//164 177//152 176//151 
f 20//163 176//151 175//150 
f 10//162 175//150 174//149 
f 11//161 174//149 173//148 
f 14//160 173//148 172//146 
f 33//159 35//197 182//157 
f 183//158 182//157 181//156 
f 182//157 35//197 37//145 
f 181//156 170//142 169//141 
f 179//154 169//141 168//140 
f 177//152 168//140 167//139 
f 176//151 167//139 166//138 
f 175//150 166//138 165//137 
f 174//149 165//137 164//136 
f 173//148 164//136 148//119 
f 24//147 172//146 145//116 
f 172//146 148//119 143//113 
f 37//145 39//144 171//143 
f 39//144 42//135 162//133 
f 171//143 162//133 160//131 
f 169//141 160//131 158//129 
f 168//140 158//129 156//127 
f 167//139 156//127 154//125 
f 166//138 154//125 152//123 
f 165//137 152//123 150//121 
f 164//136 150//121 147//118 
f 42//135 44//194 163//134 
f 162//133 163//134 161//132 
f 160//131 161//132 159//130 
f 158//129 159//130 157//128 
f 156//127 157//128 155//126 
f 154//125 155//126 153//124 
f 152//123 153//124 151//122 
f 150//121 151//122 149//120 
f 148//119 147//118 144//114 
f 147//118 149//120 146//117 
f 145//116 143//113 139//105 
f 144//114 146//117 142//112 
f 128//111 137//198 127//109 
f 5//103 138//102 127//109 
f 126//108 128//111 140//106 
f 139//105 142//112 138//102 
o mesh4
f 134//199 54//199 53//199 
f 134//199 57//199 54//199 
f 134//199 58//199 57//199 
f 134//199 60//199 59//199 
f 136//199 64//199 63//199 
f 64//199 136//199 52//199 
f 56//199 130//199 131//199 
f 59//199 58//199 134//199 
f 134//199 62//199 61//199 
f 52//199 51//199 64//199 
f 62//199 134//199 135//199 
f 56//199 132//199 133//199 
f 56//199 129//199 130//199 
f 56//199 128//199 126//199 
f 61//199 60//199 134//199 
f 135//199 136//199 62//199 
f 131//199 132//199 56//199 
f 56//199 137//199 128//199 
f 63//199 62//199 136//199 
f 126//199 129//199 56//199 
f 133//199 134//199 56//199 
f 53//199 56//199 134//199 
o mesh5
f 56//200 197//200 198//200 
f 198//200 137//200 56//200 
o mesh6
f 198//201 197//201 199//201 
f 199//201 200//201 198//201 
o mesh7
f 197//202 56//202 55//202 
f 55//202 199//202 197//202 
f 55//202 6//202 199//202 
o mesh8
f 29//203 200//203 199//203 
f 199//203 6//203 29//203 
o mesh9
f 198//204 200//204 127//204 
f 200//204 29//204 127//204 
f 127//204 137//204 198//204 
