# OBJ generated by ONSHAPE BY PTC INC, 1.208 Units = meters
mtllib Arrow.mtl
g Arrow
v -0.0217889 -0.249049 -0.4 
v -0.043412 -0.246202 -0.4 
v -0.0647048 -0.241481 -0.4 
v -0.085505 -0.234923 -0.4 
v -0.105655 -0.226577 -0.4 
v -0.125 -0.216506 -0.4 
v -0.143394 -0.204788 -0.4 
v -0.160697 -0.191511 -0.4 
v -0.176777 -0.176777 -0.4 
v -0.191511 -0.160697 -0.4 
v -0.204788 -0.143394 -0.4 
v -0.216506 -0.125 -0.4 
v -0.226577 -0.105655 -0.4 
v -0.234923 -0.085505 -0.4 
v -0.241481 -0.0647048 -0.4 
v -0.246202 -0.043412 -0.4 
v -0.249049 -0.0217889 -0.4 
v -0.25 2.83277e-16 -0.4 
v -0.249049 0.0217889 -0.4 
v -0.246202 0.043412 -0.4 
v -0.241481 0.0647048 -0.4 
v -0.234923 0.085505 -0.4 
v -0.226577 0.105655 -0.4 
v -0.216506 0.125 -0.4 
v -0.204788 0.143394 -0.4 
v -0.191511 0.160697 -0.4 
v -0.176777 0.176777 -0.4 
v -0.160697 0.191511 -0.4 
v -0.143394 0.204788 -0.4 
v -0.125 0.216506 -0.4 
v -0.105655 0.226577 -0.4 
v -0.085505 0.234923 -0.4 
v -0.0647048 0.241481 -0.4 
v -0.043412 0.246202 -0.4 
v -0.0217889 0.249049 -0.4 
v 1.41638e-16 0.25 -0.4 
v 0.0217889 0.249049 -0.4 
v 0.043412 0.246202 -0.4 
v 0.0647048 0.241481 -0.4 
v 0.085505 0.234923 -0.4 
v 0.105655 0.226577 -0.4 
v 0.125 0.216506 -0.4 
v 0.143394 0.204788 -0.4 
v 0.160697 0.191511 -0.4 
v 0.176777 0.176777 -0.4 
v 0.191511 0.160697 -0.4 
v 0.204788 0.143394 -0.4 
v 0.216506 0.125 -0.4 
v 0.226577 0.105655 -0.4 
v 0.234923 0.085505 -0.4 
v 0.241481 0.0647048 -0.4 
v 0.246202 0.043412 -0.4 
v 0.249049 0.0217889 -0.4 
v 0.25 -5.55112e-17 -0.4 
v 0.249049 -0.0217889 -0.4 
v 0.246202 -0.043412 -0.4 
v 0.241481 -0.0647048 -0.4 
v 0.234923 -0.085505 -0.4 
v 0.226577 -0.105655 -0.4 
v 0.216506 -0.125 -0.4 
v 0.204788 -0.143394 -0.4 
v 0.191511 -0.160697 -0.4 
v 0.176777 -0.176777 -0.4 
v 0.160697 -0.191511 -0.4 
v 0.143394 -0.204788 -0.4 
v 0.125 -0.216506 -0.4 
v 0.105655 -0.226577 -0.4 
v 0.085505 -0.234923 -0.4 
v 0.0647048 -0.241481 -0.4 
v 0.043412 -0.246202 -0.4 
v 0.0217889 -0.249049 -0.4 
v -6.12323e-17 -0.25 -0.4 
v 0 1.53081e-17 -0.4 
v 0 -0.25 0 
v 0.0217889 -0.249049 0 
v 0.043412 -0.246202 0 
v 0.0647048 -0.241481 0 
v 0.085505 -0.234923 0 
v 0.105655 -0.226577 0 
v 0.125 -0.216506 0 
v 0.143394 -0.204788 0 
v 0.160697 -0.191511 0 
v 0.176777 -0.176777 0 
v 0.191511 -0.160697 0 
v 0.204788 -0.143394 0 
v 0.216506 -0.125 0 
v 0.226577 -0.105655 0 
v 0.234923 -0.085505 0 
v 0.241481 -0.0647048 0 
v 0.246202 -0.043412 0 
v 0.249049 -0.0217889 0 
v 0.25 -5.55112e-17 0 
v 0.249049 0.0217889 0 
v 0.246202 0.043412 0 
v 0.241481 0.0647048 0 
v 0.234923 0.085505 0 
v 0.226577 0.105655 0 
v 0.216506 0.125 0 
v 0.204788 0.143394 0 
v 0.191511 0.160697 0 
v 0.176777 0.176777 0 
v 0.160697 0.191511 0 
v 0.143394 0.204788 0 
v 0.125 0.216506 0 
v 0.105655 0.226577 0 
v 0.085505 0.234923 0 
v 0.0647048 0.241481 0 
v 0.043412 0.246202 0 
v 0.0217889 0.249049 0 
v 1.41638e-16 0.25 0 
v -0.0217889 0.249049 0 
v -0.043412 0.246202 0 
v -0.0647048 0.241481 0 
v -0.085505 0.234923 0 
v -0.105655 0.226577 0 
v -0.125 0.216506 0 
v -0.143394 0.204788 0 
v -0.160697 0.191511 0 
v -0.176777 0.176777 0 
v -0.191511 0.160697 0 
v -0.204788 0.143394 0 
v -0.216506 0.125 0 
v -0.226577 0.105655 0 
v -0.234923 0.085505 0 
v -0.241481 0.0647048 0 
v -0.246202 0.043412 0 
v -0.249049 0.0217889 0 
v -0.25 2.83277e-16 0 
v -0.249049 -0.0217889 0 
v -0.246202 -0.043412 0 
v -0.241481 -0.0647048 0 
v -0.234923 -0.085505 0 
v -0.226577 -0.105655 0 
v -0.216506 -0.125 0 
v -0.204788 -0.143394 0 
v -0.191511 -0.160697 0 
v -0.176777 -0.176777 0 
v -0.160697 -0.191511 0 
v -0.143394 -0.204788 0 
v -0.125 -0.216506 0 
v -0.105655 -0.226577 0 
v -0.085505 -0.234923 0 
v -0.0647048 -0.241481 0 
v -0.043412 -0.246202 0 
v -0.0217889 -0.249049 0 
v 0.399009 -0.301317 -2.61248e-16 
v 0.379702 -0.325309 -2.5995e-16 
v -0.499763 -0.0153975 -2.76722e-16 
v -0.488424 0.106967 -2.83345e-16 
v -0.480913 0.136831 -2.84961e-16 
v 0.416801 -0.276182 -2.62608e-16 
v -0.497867 -0.0461342 -2.75059e-16 
v -0.499763 0.0153975 -2.78389e-16 
v -0.497867 0.0461342 -2.80053e-16 
v -0.494083 0.0766958 -2.81707e-16 
v 0.151576 0.476471 -3.03343e-16 
v 0.336848 0.369504 -2.97554e-16 
v 0.358956 0.348067 -2.96394e-16 
v 0.460453 -0.194893 -2.67008e-16 
v 0.358956 -0.348067 -2.58718e-16 
v 0.336848 -0.369504 -2.57558e-16 
v -0.488424 -0.106967 -2.71767e-16 
v -0.263216 0.425109 -3.00563e-16 
v 0.0614441 0.49621 -3.04411e-16 
v 0.0918748 0.491487 -3.04156e-16 
v 0.121957 0.484898 -3.03799e-16 
v 0.236547 0.440506 -3.01397e-16 
v 0.263216 0.425109 -3.00563e-16 
v 0.288887 0.408098 -2.99643e-16 
v 0.313462 0.38954 -2.98638e-16 
v 0.379702 0.325309 -2.95162e-16 
v 0.488424 0.106967 -2.83345e-16 
v 0.480913 -0.136831 -2.7015e-16 
v 0.471577 -0.166177 -2.68562e-16 
v 0.447582 -0.222869 -2.65494e-16 
v 0.433013 -0.25 -2.64025e-16 
v 0.313462 -0.38954 -2.56473e-16 
v 0.288887 -0.408098 -2.55469e-16 
v 0.263216 -0.425109 -2.54548e-16 
v -0.0614441 -0.49621 -2.507e-16 
v -0.0918748 -0.491487 -2.50956e-16 
v -0.399009 -0.301317 -2.61248e-16 
v -0.460453 -0.194893 -2.67008e-16 
v -0.471577 -0.166177 -2.68562e-16 
v -0.480913 -0.136831 -2.7015e-16 
v -0.494083 -0.0766958 -2.73405e-16 
v -0.471577 0.166177 -2.8655e-16 
v -0.460453 0.194893 -2.88104e-16 
v -0.399009 0.301317 -2.93864e-16 
v -0.379702 0.325309 -2.95162e-16 
v -0.336848 0.369504 -2.97554e-16 
v -0.313462 0.38954 -2.98638e-16 
v -0.288887 0.408098 -2.99643e-16 
v -0.151576 0.476471 -3.03343e-16 
v -0.121957 0.484898 -3.03799e-16 
v 0.0307805 0.499052 -3.04565e-16 
v 0.180621 0.466236 -3.02789e-16 
v 0.20898 0.454233 -3.0214e-16 
v 0.399009 0.301317 -2.93864e-16 
v 0.460453 0.194893 -2.88104e-16 
v 0.471577 0.166177 -2.8655e-16 
v 0.480913 0.136831 -2.84961e-16 
v 0.494083 0.0766958 -2.81707e-16 
v 0.497867 0.0461342 -2.80053e-16 
v 0.488424 -0.106967 -2.71767e-16 
v -0.0307805 -0.499052 -2.50546e-16 
v -0.121957 -0.484898 -2.51312e-16 
v -0.236547 -0.440506 -2.53715e-16 
v -0.358956 -0.348067 -2.58718e-16 
v -0.379702 -0.325309 -2.5995e-16 
v -0.447582 -0.222869 -2.65494e-16 
v -0.447582 0.222869 -2.89618e-16 
v -0.433013 0.25 -2.91086e-16 
v -0.416801 0.276182 -2.92503e-16 
v -0.358956 0.348067 -2.96394e-16 
v -0.236547 0.440506 -3.01397e-16 
v -0.20898 0.454233 -3.0214e-16 
v -0.180621 0.466236 -3.02789e-16 
v 0.416801 0.276182 -2.92503e-16 
v 0.433013 0.25 -2.91086e-16 
v 0.447582 0.222869 -2.89618e-16 
v 0.499763 0.0153975 -2.78389e-16 
v 0.499763 -0.0153975 -2.76722e-16 
v 0.497867 -0.0461342 -2.75059e-16 
v 0.494083 -0.0766958 -2.73405e-16 
v 0.236547 -0.440506 -2.53715e-16 
v -0.151576 -0.476471 -2.51768e-16 
v -0.180621 -0.466236 -2.52322e-16 
v -0.20898 -0.454233 -2.52972e-16 
v -0.336848 -0.369504 -2.57558e-16 
v -0.416801 -0.276182 -2.62608e-16 
v -0.433013 -0.25 -2.64025e-16 
v -0.0918748 0.491487 -3.04156e-16 
v 0.151576 -0.476471 -2.51768e-16 
v 0.121957 -0.484898 -2.51312e-16 
v -0.263216 -0.425109 -2.54548e-16 
v -0.288887 -0.408098 -2.55469e-16 
v -0.313462 -0.38954 -2.56473e-16 
v -0.0614441 0.49621 -3.04411e-16 
v 0.20898 -0.454233 -2.52972e-16 
v 0.180621 -0.466236 -2.52322e-16 
v 0.0918748 -0.491487 -2.50956e-16 
v -0.0307805 0.499052 -3.04565e-16 
v 0 0.5 -3.04617e-16 
v 0.0614441 -0.49621 -2.507e-16 
v 0.0307805 -0.499052 -2.50546e-16 
v 1.17146e-15 -0.5 -2.50495e-16 
v 0 8.79841e-17 0.6 
vn 0 0 -1 
vn 0 -1 0 
vn 0.0871557 -0.996195 0 
vn 0.173648 -0.984808 0 
vn 0.258819 -0.965926 0 
vn 0.34202 -0.939693 0 
vn 0.422618 -0.906308 0 
vn 0.5 -0.866025 0 
vn 0.573576 -0.819152 0 
vn 0.642788 -0.766044 0 
vn 0.707107 -0.707107 0 
vn 0.766044 -0.642788 0 
vn 0.819152 -0.573576 0 
vn 0.866025 -0.5 0 
vn 0.906308 -0.422618 0 
vn 0.939693 -0.34202 0 
vn 0.965926 -0.258819 0 
vn 0.984808 -0.173648 0 
vn 0.996195 -0.0871557 0 
vn 1 -2.83277e-16 0 
vn 0.996195 0.0871557 0 
vn 0.984808 0.173648 0 
vn 0.965926 0.258819 0 
vn 0.939693 0.34202 0 
vn 0.906308 0.422618 0 
vn 0.866025 0.5 0 
vn 0.819152 0.573576 0 
vn 0.766044 0.642788 0 
vn 0.707107 0.707107 0 
vn 0.642788 0.766044 0 
vn 0.573576 0.819152 0 
vn 0.5 0.866025 0 
vn 0.422618 0.906308 0 
vn 0.34202 0.939693 0 
vn 0.258819 0.965926 0 
vn 0.173648 0.984808 0 
vn 0.0871557 0.996195 0 
vn 5.66554e-16 1 0 
vn -0.0871557 0.996195 0 
vn -0.173648 0.984808 0 
vn -0.258819 0.965926 0 
vn -0.34202 0.939693 0 
vn -0.422618 0.906308 0 
vn -0.5 0.866025 0 
vn -0.573576 0.819152 0 
vn -0.642788 0.766044 0 
vn -0.707107 0.707107 0 
vn -0.766044 0.642788 0 
vn -0.819152 0.573576 0 
vn -0.866025 0.5 0 
vn -0.906308 0.422618 0 
vn -0.939693 0.34202 0 
vn -0.965926 0.258819 0 
vn -0.984808 0.173648 0 
vn -0.996195 0.0871557 0 
vn -1 1.07188e-15 0 
vn -0.996195 -0.0871557 0 
vn -0.984808 -0.173648 0 
vn -0.965926 -0.258819 0 
vn -0.939693 -0.34202 0 
vn -0.906308 -0.422618 0 
vn -0.866025 -0.5 0 
vn -0.819152 -0.573576 0 
vn -0.766044 -0.642788 0 
vn -0.707107 -0.707107 0 
vn -0.642788 -0.766044 0 
vn -0.573576 -0.819152 0 
vn -0.5 -0.866025 0 
vn -0.422618 -0.906308 0 
vn -0.34202 -0.939693 0 
vn -0.258819 -0.965926 0 
vn -0.173648 -0.984808 0 
vn -0.0871557 -0.996195 0 
vn 0 -5.41216e-17 -1 
vn 0 0.768221 0.640184 
vn -0.0472924 0.766764 0.640184 
vn -0.0236574 0.767857 0.640184 
vn -0.0944054 0.762399 0.640184 
vn -0.0708825 0.764944 0.640184 
vn -0.14116 0.755141 0.640184 
vn -0.117839 0.75913 0.640184 
vn -0.18738 0.745019 0.640184 
vn -0.164348 0.750436 0.640184 
vn -0.232888 0.73207 0.640184 
vn -0.210234 0.738895 0.640184 
vn -0.277514 0.716345 0.640184 
vn -0.255322 0.724551 0.640184 
vn -0.321086 0.697902 0.640184 
vn -0.299442 0.707459 0.640184 
vn -0.363441 0.676812 0.640184 
vn -0.342426 0.687683 0.640184 
vn -0.404416 0.653155 0.640184 
vn -0.384111 0.665299 0.640184 
vn -0.443858 0.62702 0.640184 
vn -0.424339 0.640391 0.640184 
vn -0.481616 0.598506 0.640184 
vn -0.462957 0.613054 0.640184 
vn -0.517547 0.567722 0.640184 
vn -0.499819 0.583391 0.640184 
vn -0.551515 0.534785 0.640184 
vn -0.534785 0.551515 0.640184 
vn -0.583391 0.499819 0.640184 
vn -0.567722 0.517547 0.640184 
vn -0.613054 0.462957 0.640184 
vn -0.598506 0.481616 0.640184 
vn -0.640391 0.424339 0.640184 
vn -0.62702 0.443858 0.640184 
vn -0.665299 0.384111 0.640184 
vn -0.653155 0.404416 0.640184 
vn -0.687683 0.342426 0.640184 
vn -0.676812 0.363441 0.640184 
vn -0.707459 0.299442 0.640184 
vn -0.697902 0.321086 0.640184 
vn -0.724551 0.255322 0.640184 
vn -0.716345 0.277514 0.640184 
vn -0.738895 0.210234 0.640184 
vn -0.73207 0.232888 0.640184 
vn -0.750436 0.164348 0.640184 
vn -0.745019 0.18738 0.640184 
vn -0.75913 0.117839 0.640184 
vn -0.755141 0.14116 0.640184 
vn -0.764944 0.0708825 0.640184 
vn -0.762399 0.0944054 0.640184 
vn -0.767857 0.0236574 0.640184 
vn -0.766764 0.0472924 0.640184 
vn -0.767857 -0.0236574 0.640184 
vn -0.768221 -4.8827e-15 0.640184 
vn -0.764944 -0.0708825 0.640184 
vn -0.766764 -0.0472924 0.640184 
vn -0.75913 -0.117839 0.640184 
vn -0.762399 -0.0944054 0.640184 
vn -0.750436 -0.164348 0.640184 
vn -0.755141 -0.14116 0.640184 
vn -0.738895 -0.210234 0.640184 
vn -0.745019 -0.18738 0.640184 
vn -0.724551 -0.255322 0.640184 
vn -0.73207 -0.232888 0.640184 
vn -0.707459 -0.299442 0.640184 
vn -0.716345 -0.277514 0.640184 
vn -0.687683 -0.342426 0.640184 
vn -0.697902 -0.321086 0.640184 
vn -0.665299 -0.384111 0.640184 
vn -0.676812 -0.363441 0.640184 
vn -0.640391 -0.424339 0.640184 
vn -0.653155 -0.404416 0.640184 
vn -0.613054 -0.462957 0.640184 
vn -0.62702 -0.443858 0.640184 
vn -0.583391 -0.499819 0.640184 
vn -0.598506 -0.481616 0.640184 
vn -0.551515 -0.534785 0.640184 
vn -0.567722 -0.517547 0.640184 
vn -0.517547 -0.567722 0.640184 
vn -0.534785 -0.551515 0.640184 
vn -0.481616 -0.598506 0.640184 
vn -0.499819 -0.583391 0.640184 
vn -0.443858 -0.62702 0.640184 
vn -0.462957 -0.613054 0.640184 
vn -0.404416 -0.653155 0.640184 
vn -0.424339 -0.640391 0.640184 
vn -0.363441 -0.676812 0.640184 
vn -0.384111 -0.665299 0.640184 
vn -0.321086 -0.697902 0.640184 
vn -0.342426 -0.687683 0.640184 
vn -0.277514 -0.716345 0.640184 
vn -0.299442 -0.707459 0.640184 
vn -0.232888 -0.73207 0.640184 
vn -0.255322 -0.724551 0.640184 
vn -0.18738 -0.745019 0.640184 
vn -0.210234 -0.738895 0.640184 
vn -0.14116 -0.755141 0.640184 
vn -0.164348 -0.750436 0.640184 
vn -0.0944054 -0.762399 0.640184 
vn -0.117839 -0.75913 0.640184 
vn -0.0472924 -0.766764 0.640184 
vn -0.0708825 -0.764944 0.640184 
vn 1.01282e-16 -0.768221 0.640184 
vn -0.0236574 -0.767857 0.640184 
vn 0.0472924 -0.766764 0.640184 
vn 0.0236574 -0.767857 0.640184 
vn 0.0944054 -0.762399 0.640184 
vn 0.0708825 -0.764944 0.640184 
vn 0.14116 -0.755141 0.640184 
vn 0.117839 -0.75913 0.640184 
vn 0.18738 -0.745019 0.640184 
vn 0.164348 -0.750436 0.640184 
vn 0.232888 -0.73207 0.640184 
vn 0.210234 -0.738895 0.640184 
vn 0.277514 -0.716345 0.640184 
vn 0.255322 -0.724551 0.640184 
vn 0.321086 -0.697902 0.640184 
vn 0.299442 -0.707459 0.640184 
vn 0.363441 -0.676812 0.640184 
vn 0.342426 -0.687683 0.640184 
vn 0.404416 -0.653155 0.640184 
vn 0.384111 -0.665299 0.640184 
vn 0.443858 -0.62702 0.640184 
vn 0.424339 -0.640391 0.640184 
vn 0.481616 -0.598506 0.640184 
vn 0.462957 -0.613054 0.640184 
vn 0.517547 -0.567722 0.640184 
vn 0.499819 -0.583391 0.640184 
vn 0.551515 -0.534785 0.640184 
vn 0.534785 -0.551515 0.640184 
vn 0.583391 -0.499819 0.640184 
vn 0.567722 -0.517547 0.640184 
vn 0.613054 -0.462957 0.640184 
vn 0.598506 -0.481616 0.640184 
vn 0.640391 -0.424339 0.640184 
vn 0.62702 -0.443858 0.640184 
vn 0.665299 -0.384111 0.640184 
vn 0.653155 -0.404416 0.640184 
vn 0.687683 -0.342426 0.640184 
vn 0.676812 -0.363441 0.640184 
vn 0.707459 -0.299442 0.640184 
vn 0.697902 -0.321086 0.640184 
vn 0.724551 -0.255322 0.640184 
vn 0.716345 -0.277514 0.640184 
vn 0.738895 -0.210234 0.640184 
vn 0.73207 -0.232888 0.640184 
vn 0.750436 -0.164348 0.640184 
vn 0.745019 -0.18738 0.640184 
vn 0.75913 -0.117839 0.640184 
vn 0.755141 -0.14116 0.640184 
vn 0.764944 -0.0708825 0.640184 
vn 0.762399 -0.0944054 0.640184 
vn 0.767857 -0.0236574 0.640184 
vn 0.766764 -0.0472924 0.640184 
vn 0.767857 0.0236574 0.640184 
vn 0.768221 -6.0063e-16 0.640184 
vn 0.764944 0.0708825 0.640184 
vn 0.766764 0.0472924 0.640184 
vn 0.75913 0.117839 0.640184 
vn 0.762399 0.0944054 0.640184 
vn 0.750436 0.164348 0.640184 
vn 0.755141 0.14116 0.640184 
vn 0.738895 0.210234 0.640184 
vn 0.745019 0.18738 0.640184 
vn 0.724551 0.255322 0.640184 
vn 0.73207 0.232888 0.640184 
vn 0.707459 0.299442 0.640184 
vn 0.716345 0.277514 0.640184 
vn 0.687683 0.342426 0.640184 
vn 0.697902 0.321086 0.640184 
vn 0.665299 0.384111 0.640184 
vn 0.676812 0.363441 0.640184 
vn 0.640391 0.424339 0.640184 
vn 0.653155 0.404416 0.640184 
vn 0.613054 0.462957 0.640184 
vn 0.62702 0.443858 0.640184 
vn 0.583391 0.499819 0.640184 
vn 0.598506 0.481616 0.640184 
vn 0.551515 0.534785 0.640184 
vn 0.567722 0.517547 0.640184 
vn 0.517547 0.567722 0.640184 
vn 0.534785 0.551515 0.640184 
vn 0.481616 0.598506 0.640184 
vn 0.499819 0.583391 0.640184 
vn 0.443858 0.62702 0.640184 
vn 0.462957 0.613054 0.640184 
vn 0.404416 0.653155 0.640184 
vn 0.424339 0.640391 0.640184 
vn 0.363441 0.676812 0.640184 
vn 0.384111 0.665299 0.640184 
vn 0.321086 0.697902 0.640184 
vn 0.342426 0.687683 0.640184 
vn 0.277514 0.716345 0.640184 
vn 0.299442 0.707459 0.640184 
vn 0.232888 0.73207 0.640184 
vn 0.255322 0.724551 0.640184 
vn 0.18738 0.745019 0.640184 
vn 0.210234 0.738895 0.640184 
vn 0.14116 0.755141 0.640184 
vn 0.164348 0.750436 0.640184 
vn 0.0944054 0.762399 0.640184 
vn 0.117839 0.75913 0.640184 
vn 0.0472924 0.766764 0.640184 
vn 0.0708825 0.764944 0.640184 
vn 0.0236574 0.767857 0.640184 
usemtl 0.615686_0.811765_0.929412_0.000000_0.000000
o mesh0
f 73//1 1//1 2//1 
f 2//1 3//1 73//1 
f 3//1 4//1 73//1 
f 4//1 5//1 73//1 
f 5//1 6//1 73//1 
f 6//1 7//1 73//1 
f 7//1 8//1 73//1 
f 8//1 9//1 73//1 
f 9//1 10//1 73//1 
f 10//1 11//1 73//1 
f 11//1 12//1 73//1 
f 12//1 13//1 73//1 
f 13//1 14//1 73//1 
f 14//1 15//1 73//1 
f 15//1 16//1 73//1 
f 16//1 17//1 73//1 
f 17//1 18//1 73//1 
f 18//1 19//1 73//1 
f 19//1 20//1 73//1 
f 20//1 21//1 73//1 
f 21//1 22//1 73//1 
f 22//1 23//1 73//1 
f 23//1 24//1 73//1 
f 24//1 25//1 73//1 
f 25//1 26//1 73//1 
f 26//1 27//1 73//1 
f 27//1 28//1 73//1 
f 28//1 29//1 73//1 
f 29//1 30//1 73//1 
f 30//1 31//1 73//1 
f 31//1 32//1 73//1 
f 32//1 33//1 73//1 
f 33//1 34//1 73//1 
f 34//1 35//1 73//1 
f 35//1 36//1 73//1 
f 36//1 37//1 73//1 
f 37//1 38//1 73//1 
f 38//1 39//1 73//1 
f 39//1 40//1 73//1 
f 40//1 41//1 73//1 
f 41//1 42//1 73//1 
f 42//1 43//1 73//1 
f 43//1 44//1 73//1 
f 44//1 45//1 73//1 
f 45//1 46//1 73//1 
f 46//1 47//1 73//1 
f 47//1 48//1 73//1 
f 48//1 49//1 73//1 
f 49//1 50//1 73//1 
f 50//1 51//1 73//1 
f 51//1 52//1 73//1 
f 52//1 53//1 73//1 
f 53//1 54//1 73//1 
f 54//1 55//1 73//1 
f 55//1 56//1 73//1 
f 56//1 57//1 73//1 
f 57//1 58//1 73//1 
f 58//1 59//1 73//1 
f 59//1 60//1 73//1 
f 60//1 61//1 73//1 
f 61//1 62//1 73//1 
f 62//1 63//1 73//1 
f 63//1 64//1 73//1 
f 64//1 65//1 73//1 
f 65//1 66//1 73//1 
f 66//1 67//1 73//1 
f 67//1 68//1 73//1 
f 68//1 69//1 73//1 
f 69//1 70//1 73//1 
f 70//1 71//1 73//1 
f 71//1 72//1 73//1 
f 72//1 1//1 73//1 
o mesh1
f 74//2 72//2 71//3 
f 75//3 71//3 70//4 
f 76//4 70//4 69//5 
f 77//5 69//5 68//6 
f 78//6 68//6 67//7 
f 79//7 67//7 66//8 
f 80//8 66//8 65//9 
f 81//9 65//9 64//10 
f 82//10 64//10 63//11 
f 83//11 63//11 62//12 
f 84//12 62//12 61//13 
f 85//13 61//13 60//14 
f 86//14 60//14 59//15 
f 87//15 59//15 58//16 
f 88//16 58//16 57//17 
f 89//17 57//17 56//18 
f 90//18 56//18 55//19 
f 91//19 55//19 54//20 
f 92//20 54//20 53//21 
f 93//21 53//21 52//22 
f 94//22 52//22 51//23 
f 95//23 51//23 50//24 
f 96//24 50//24 49//25 
f 97//25 49//25 48//26 
f 98//26 48//26 47//27 
f 99//27 47//27 46//28 
f 100//28 46//28 45//29 
f 101//29 45//29 44//30 
f 102//30 44//30 43//31 
f 103//31 43//31 42//32 
f 104//32 42//32 41//33 
f 105//33 41//33 40//34 
f 106//34 40//34 39//35 
f 107//35 39//35 38//36 
f 108//36 38//36 37//37 
f 109//37 37//37 36//38 
f 110//38 36//38 35//39 
f 111//39 35//39 34//40 
f 112//40 34//40 33//41 
f 113//41 33//41 32//42 
f 114//42 32//42 31//43 
f 115//43 31//43 30//44 
f 116//44 30//44 29//45 
f 117//45 29//45 28//46 
f 118//46 28//46 27//47 
f 119//47 27//47 26//48 
f 120//48 26//48 25//49 
f 121//49 25//49 24//50 
f 122//50 24//50 23//51 
f 123//51 23//51 22//52 
f 124//52 22//52 21//53 
f 125//53 21//53 20//54 
f 126//54 20//54 19//55 
f 127//55 19//55 18//56 
f 128//56 18//56 17//57 
f 129//57 17//57 16//58 
f 130//58 16//58 15//59 
f 131//59 15//59 14//60 
f 132//60 14//60 13//61 
f 133//61 13//61 12//62 
f 134//62 12//62 11//63 
f 135//63 11//63 10//64 
f 136//64 10//64 9//65 
f 137//65 9//65 8//66 
f 138//66 8//66 7//67 
f 139//67 7//67 6//68 
f 140//68 6//68 5//69 
f 141//69 5//69 4//70 
f 142//70 4//70 3//71 
f 143//71 3//71 2//72 
f 144//72 2//72 1//73 
f 145//73 1//73 72//2 
f 72//2 74//2 145//73 
f 1//73 145//73 144//72 
f 2//72 144//72 143//71 
f 3//71 143//71 142//70 
f 4//70 142//70 141//69 
f 5//69 141//69 140//68 
f 6//68 140//68 139//67 
f 7//67 139//67 138//66 
f 8//66 138//66 137//65 
f 9//65 137//65 136//64 
f 10//64 136//64 135//63 
f 11//63 135//63 134//62 
f 12//62 134//62 133//61 
f 13//61 133//61 132//60 
f 14//60 132//60 131//59 
f 15//59 131//59 130//58 
f 16//58 130//58 129//57 
f 17//57 129//57 128//56 
f 18//56 128//56 127//55 
f 19//55 127//55 126//54 
f 20//54 126//54 125//53 
f 21//53 125//53 124//52 
f 22//52 124//52 123//51 
f 23//51 123//51 122//50 
f 24//50 122//50 121//49 
f 25//49 121//49 120//48 
f 26//48 120//48 119//47 
f 27//47 119//47 118//46 
f 28//46 118//46 117//45 
f 29//45 117//45 116//44 
f 30//44 116//44 115//43 
f 31//43 115//43 114//42 
f 32//42 114//42 113//41 
f 33//41 113//41 112//40 
f 34//40 112//40 111//39 
f 35//39 111//39 110//38 
f 36//38 110//38 109//37 
f 37//37 109//37 108//36 
f 38//36 108//36 107//35 
f 39//35 107//35 106//34 
f 40//34 106//34 105//33 
f 41//33 105//33 104//32 
f 42//32 104//32 103//31 
f 43//31 103//31 102//30 
f 44//30 102//30 101//29 
f 45//29 101//29 100//28 
f 46//28 100//28 99//27 
f 47//27 99//27 98//26 
f 48//26 98//26 97//25 
f 49//25 97//25 96//24 
f 50//24 96//24 95//23 
f 51//23 95//23 94//22 
f 52//22 94//22 93//21 
f 53//21 93//21 92//20 
f 54//20 92//20 91//19 
f 55//19 91//19 90//18 
f 56//18 90//18 89//17 
f 57//17 89//17 88//16 
f 58//16 88//16 87//15 
f 59//15 87//15 86//14 
f 60//14 86//14 85//13 
f 61//13 85//13 84//12 
f 62//12 84//12 83//11 
f 63//11 83//11 82//10 
f 64//10 82//10 81//9 
f 65//9 81//9 80//8 
f 66//8 80//8 79//7 
f 67//7 79//7 78//6 
f 68//6 78//6 77//5 
f 69//5 77//5 76//4 
f 70//4 76//4 75//3 
f 71//3 75//3 74//2 
o mesh2
f 146//74 147//74 84//74 
f 148//74 128//74 129//74 
f 149//74 150//74 125//74 
f 151//74 85//74 86//74 
f 85//74 151//74 146//74 
f 129//74 152//74 148//74 
f 153//74 154//74 127//74 
f 155//74 126//74 127//74 
f 126//74 155//74 149//74 
f 156//74 106//74 107//74 
f 157//74 158//74 101//74 
f 159//74 87//74 88//74 
f 84//74 85//74 146//74 
f 160//74 83//74 84//74 
f 161//74 82//74 83//74 
f 162//74 130//74 131//74 
f 127//74 128//74 153//74 
f 125//74 126//74 149//74 
f 163//74 116//74 117//74 
f 164//74 165//74 108//74 
f 166//74 107//74 108//74 
f 107//74 166//74 156//74 
f 167//74 104//74 105//74 
f 168//74 169//74 103//74 
f 170//74 102//74 103//74 
f 102//74 170//74 157//74 
f 158//74 171//74 100//74 
f 172//74 94//74 95//74 
f 173//74 174//74 88//74 
f 88//74 174//74 159//74 
f 175//74 176//74 86//74 
f 84//74 147//74 160//74 
f 83//74 160//74 161//74 
f 177//74 178//74 81//74 
f 179//74 80//74 81//74 
f 180//74 181//74 144//74 
f 182//74 135//74 136//74 
f 183//74 184//74 132//74 
f 131//74 185//74 162//74 
f 186//74 152//74 129//74 
f 127//74 154//74 155//74 
f 150//74 187//74 124//74 
f 188//74 123//74 124//74 
f 189//74 190//74 120//74 
f 191//74 118//74 119//74 
f 192//74 193//74 117//74 
f 117//74 193//74 163//74 
f 194//74 195//74 113//74 
f 109//74 196//74 164//74 
f 156//74 197//74 106//74 
f 197//74 198//74 105//74 
f 105//74 198//74 167//74 
f 103//74 169//74 170//74 
f 100//74 101//74 158//74 
f 199//74 99//74 100//74 
f 200//74 201//74 96//74 
f 95//74 202//74 172//74 
f 203//74 204//74 93//74 
f 205//74 173//74 89//74 
f 159//74 175//74 87//74 
f 86//74 176//74 151//74 
f 81//74 82//74 177//74 
f 81//74 178//74 179//74 
f 145//74 206//74 180//74 
f 207//74 143//74 144//74 
f 208//74 140//74 141//74 
f 209//74 210//74 136//74 
f 136//74 210//74 182//74 
f 133//74 211//74 183//74 
f 185//74 131//74 132//74 
f 129//74 130//74 186//74 
f 124//74 125//74 150//74 
f 124//74 187//74 188//74 
f 212//74 213//74 122//74 
f 214//74 121//74 122//74 
f 121//74 214//74 189//74 
f 215//74 119//74 120//74 
f 119//74 215//74 191//74 
f 163//74 216//74 116//74 
f 216//74 217//74 115//74 
f 218//74 114//74 115//74 
f 114//74 218//74 194//74 
f 108//74 165//74 166//74 
f 167//74 168//74 104//74 
f 101//74 102//74 157//74 
f 100//74 171//74 199//74 
f 219//74 220//74 98//74 
f 221//74 97//74 98//74 
f 97//74 221//74 200//74 
f 202//74 95//74 96//74 
f 93//74 94//74 203//74 
f 222//74 92//74 93//74 
f 223//74 224//74 91//74 
f 225//74 90//74 91//74 
f 90//74 225//74 205//74 
f 86//74 87//74 175//74 
f 179//74 226//74 80//74 
f 206//74 145//74 74//74 
f 144//74 181//74 207//74 
f 227//74 142//74 143//74 
f 228//74 229//74 141//74 
f 141//74 229//74 208//74 
f 230//74 209//74 137//74 
f 182//74 231//74 135//74 
f 231//74 232//74 134//74 
f 132//74 184//74 185//74 
f 148//74 153//74 128//74 
f 122//74 123//74 212//74 
f 120//74 121//74 189//74 
f 191//74 192//74 118//74 
f 115//74 116//74 216//74 
f 113//74 114//74 194//74 
f 195//74 233//74 112//74 
f 105//74 106//74 197//74 
f 199//74 219//74 99//74 
f 98//74 220//74 221//74 
f 96//74 201//74 202//74 
f 93//74 204//74 222//74 
f 92//74 222//74 223//74 
f 89//74 90//74 205//74 
f 161//74 177//74 82//74 
f 234//74 235//74 77//74 
f 144//74 145//74 180//74 
f 143//74 207//74 227//74 
f 208//74 236//74 140//74 
f 236//74 237//74 139//74 
f 238//74 138//74 139//74 
f 138//74 238//74 230//74 
f 134//74 135//74 231//74 
f 211//74 133//74 134//74 
f 162//74 186//74 130//74 
f 122//74 213//74 214//74 
f 117//74 118//74 192//74 
f 112//74 113//74 195//74 
f 239//74 111//74 112//74 
f 103//74 104//74 168//74 
f 96//74 97//74 200//74 
f 91//74 92//74 223//74 
f 88//74 89//74 173//74 
f 226//74 240//74 79//74 
f 241//74 78//74 79//74 
f 78//74 241//74 234//74 
f 235//74 242//74 76//74 
f 227//74 228//74 142//74 
f 139//74 140//74 236//74 
f 137//74 138//74 230//74 
f 134//74 232//74 211//74 
f 188//74 212//74 123//74 
f 115//74 217//74 218//74 
f 112//74 233//74 239//74 
f 243//74 244//74 110//74 
f 98//74 99//74 219//74 
f 91//74 224//74 225//74 
f 79//74 240//74 241//74 
f 76//74 77//74 235//74 
f 245//74 75//74 76//74 
f 141//74 142//74 228//74 
f 136//74 137//74 209//74 
f 120//74 190//74 215//74 
f 110//74 111//74 243//74 
f 172//74 203//74 94//74 
f 77//74 78//74 234//74 
f 76//74 242//74 245//74 
f 246//74 247//74 74//74 
f 139//74 237//74 238//74 
f 239//74 243//74 111//74 
f 196//74 109//74 110//74 
f 79//74 80//74 226//74 
f 74//74 75//74 246//74 
f 132//74 133//74 183//74 
f 108//74 109//74 164//74 
f 74//74 247//74 206//74 
f 245//74 246//74 75//74 
f 110//74 244//74 196//74 
o mesh3
f 244//75 243//76 248//77 
f 243//76 239//78 248//79 
f 239//78 233//80 248//81 
f 233//80 195//82 248//83 
f 195//82 194//84 248//85 
f 194//84 218//86 248//87 
f 218//86 217//88 248//89 
f 217//88 216//90 248//91 
f 216//90 163//92 248//93 
f 163//92 193//94 248//95 
f 193//94 192//96 248//97 
f 192//96 191//98 248//99 
f 191//98 215//100 248//101 
f 215//100 190//102 248//103 
f 190//102 189//104 248//105 
f 189//104 214//106 248//107 
f 214//106 213//108 248//109 
f 213//108 212//110 248//111 
f 212//110 188//112 248//113 
f 188//112 187//114 248//115 
f 187//114 150//116 248//117 
f 150//116 149//118 248//119 
f 149//118 155//120 248//121 
f 155//120 154//122 248//123 
f 154//122 153//124 248//125 
f 153//124 148//126 248//127 
f 148//126 152//128 248//129 
f 152//128 186//130 248//131 
f 186//130 162//132 248//133 
f 162//132 185//134 248//135 
f 185//134 184//136 248//137 
f 184//136 183//138 248//139 
f 183//138 211//140 248//141 
f 211//140 232//142 248//143 
f 232//142 231//144 248//145 
f 231//144 182//146 248//147 
f 182//146 210//148 248//149 
f 210//148 209//150 248//151 
f 209//150 230//152 248//153 
f 230//152 238//154 248//155 
f 238//154 237//156 248//157 
f 237//156 236//158 248//159 
f 236//158 208//160 248//161 
f 208//160 229//162 248//163 
f 229//162 228//164 248//165 
f 228//164 227//166 248//167 
f 227//166 207//168 248//169 
f 207//168 181//170 248//171 
f 181//170 180//172 248//173 
f 180//172 206//174 248//175 
f 206//174 247//176 248//177 
f 247//176 246//178 248//179 
f 246//178 245//180 248//181 
f 245//180 242//182 248//183 
f 242//182 235//184 248//185 
f 235//184 234//186 248//187 
f 234//186 241//188 248//189 
f 241//188 240//190 248//191 
f 240//190 226//192 248//193 
f 226//192 179//194 248//195 
f 179//194 178//196 248//197 
f 178//196 177//198 248//199 
f 177//198 161//200 248//201 
f 161//200 160//202 248//203 
f 160//202 147//204 248//205 
f 147//204 146//206 248//207 
f 146//206 151//208 248//209 
f 151//208 176//210 248//211 
f 176//210 175//212 248//213 
f 175//212 159//214 248//215 
f 159//214 174//216 248//217 
f 174//216 173//218 248//219 
f 173//218 205//220 248//221 
f 205//220 225//222 248//223 
f 225//222 224//224 248//225 
f 224//224 223//226 248//227 
f 223//226 222//228 248//229 
f 222//228 204//230 248//231 
f 204//230 203//232 248//233 
f 203//232 172//234 248//235 
f 172//234 202//236 248//237 
f 202//236 201//238 248//239 
f 201//238 200//240 248//241 
f 200//240 221//242 248//243 
f 221//242 220//244 248//245 
f 220//244 219//246 248//247 
f 219//246 199//248 248//249 
f 199//248 171//250 248//251 
f 171//250 158//252 248//253 
f 158//252 157//254 248//255 
f 157//254 170//256 248//257 
f 170//256 169//258 248//259 
f 169//258 168//260 248//261 
f 168//260 167//262 248//263 
f 167//262 198//264 248//265 
f 198//264 197//266 248//267 
f 197//266 156//268 248//269 
f 156//268 166//270 248//271 
f 166//270 165//272 248//273 
f 165//272 164//274 248//275 
f 164//274 196//276 248//277 
f 196//276 244//75 248//278 
