# Aspose.3D Wavefront OBJ Exporter
# Copyright 2004-2020 Aspose Pty Ltd.
# File created: 8/22/2020 11:23:38 PM


#
# object obj_25748586
#

v -0.00483432272449135 0.33182933926582336 0.35548493266105652
v -1.361967701645137E-16 0.33092072606086732 0.361950010061264
v 0.00483432272449135 0.33182933926582336 0.35548493266105652
v 0.00996036920696497 0.330985426902771 0.36148950457572936
v 0.01445918716490268 0.33195850253105164 0.3545658588409424
v 0.01983576081693172 0.33117905259132384 0.36011195182800292
v 0.02395310811698436 0.33221566677093504 0.35273605585098268
v 0.02954191900789737 0.3314998745918274 0.35782906413078308
v 0.03323010355234146 0.332598477602005 0.35001209378242492
v 0.03899603709578514 0.33194521069526672 0.35466039180755616
v 0.04220616444945335 0.33310350775718688 0.3464186191558838
v 0.04811745509505272 0.33251124620437624 0.35063287615776064
v 0.05079999938607216 0.333726167678833 0.3419881761074066
v 0.05682835355401039 0.33319312334060668 0.34578093886375428
v 0.05893378332257271 0.33446082472801208 0.33676090836524964
v 0.06505440920591354 0.33398509025573732 0.34014594554901124
v 0.06653384864330292 0.33530080318450928 0.33078414201736452
v 0.07272544503211975 0.33488032221794128 0.33377602696418764
v 0.0735313817858696 0.33623850345611572 0.32411202788352968
v 0.07977601140737534 0.33587121963500976 0.32672545313835144
v 0.07986299693584442 0.33726543188095092 0.3168049454689026
v 0.08614595979452133 0.33694928884506224 0.31905439496040344
v 0.08547136187553406 0.33837231993675232 0.30892911553382872
v 0.09178093820810318 0.33810541033744812 0.3108283579349518
v 0.09030567854642868 0.33954912424087524 0.30055582523345948
v 0.09663287550210952 0.33932963013648988 0.30211746692657472
v 0.09432218223810196 0.34078514575958252 0.29176089167594908
v 0.10066037625074386 0.3406115770339966 0.29299604892730712
v 0.09748448431491852 0.34206926822662352 0.28262403607368468
v 0.10382907837629318 0.3419402539730072 0.28354191780090332
v 0.09976395219564438 0.34338977932929992 0.27322793006896972
v 0.10611194372177124 0.3433043658733368 0.27383574843406676
v 0.10113994777202606 0.344734787940979 0.26365768909454344
v 0.10748950392007828 0.34469226002693176 0.26396036148071288
v 0.10159999877214432 0.3460921049118042 0.25400000810623168
v 0.10795000195503234 0.3460921049118042 0.25400000810623168
v 0.10159999877214432 0.37465000152587888 0.05079999938607216
v 0.10795000195503234 0.37465000152587888 0.05079999938607216
v -0.10159999877214432 0.37465000152587888 0.05079999938607216
v -0.10795000195503234 0.37465000152587888 0.05079999938607216
v -0.10159999877214432 0.3460921049118042 0.25400000810623168
v -0.10795000195503234 0.3460921049118042 0.25400000810623168
v -0.10113994777202606 0.344734787940979 0.26365768909454344
v -0.10748950392007828 0.34469226002693176 0.26396036148071288
v -0.09976395219564438 0.34338977932929992 0.27322793006896972
v -0.10611194372177124 0.3433043658733368 0.27383574843406676
v -0.09748448431491852 0.34206926822662352 0.28262403607368468
v -0.10382907837629318 0.3419402539730072 0.28354191780090332
v -0.09432218223810196 0.34078514575958252 0.29176089167594908
v -0.10066037625074386 0.3406115770339966 0.29299604892730712
v -0.09030567854642868 0.33954912424087524 0.30055582523345948
v -0.09663287550210952 0.33932963013648988 0.30211746692657472
v -0.08547136187553406 0.33837231993675232 0.30892911553382872
v -0.09178093820810318 0.33810541033744812 0.3108283579349518
v -0.07986299693584442 0.33726543188095092 0.3168049454689026
v -0.08614595979452133 0.33694928884506224 0.31905439496040344
v -0.0735313817858696 0.33623850345611572 0.32411202788352968
v -0.07977601140737534 0.33587121963500976 0.32672545313835144
v -0.06653384864330292 0.33530080318450928 0.33078414201736452
v -0.07272544503211975 0.33488032221794128 0.33377602696418764
v -0.05893378332257271 0.33446082472801208 0.33676090836524964
v -0.06505440920591354 0.33398509025573732 0.34014594554901124
v -0.05079999938607216 0.333726167678833 0.3419881761074066
v -0.05682835355401039 0.33319312334060668 0.34578093886375428
v -0.04220616444945335 0.33310350775718688 0.3464186191558838
v -0.04811745509505272 0.33251124620437624 0.35063287615776064
v -0.03323010355234146 0.332598477602005 0.35001209378242492
v -0.03899603709578514 0.33194521069526672 0.35466039180755616
v -0.02395310811698436 0.33221566677093504 0.35273605585098268
v -0.02954191900789737 0.3314998745918274 0.35782906413078308
v -0.01445918716490268 0.33195850253105164 0.3545658588409424
v -0.01983576081693172 0.33117905259132384 0.36011195182800292
v -0.00996036920696497 0.330985426902771 0.36148950457572936
v 0.10795000195503234 0.12065000087022782 0.05079999938607216
v 0.10159999877214432 0.12065000087022782 0.05079999938607216
v 0.10159999877214432 0.12065000087022782 0.25400000810623168
v 0.10795000195503234 0.12065000087022782 0.25400000810623168
v -0.10795000195503234 0.12065000087022782 0.05079999938607216
v -0.10795000195503234 0.12065000087022782 0.25400000810623168
v -0.10748950392007828 0.12065000087022782 0.26396036148071288
v -0.10611194372177124 0.12065000087022782 0.27383574843406676
v -0.10382907837629318 0.12065000087022782 0.28354191780090332
v -0.10066037625074386 0.12065000087022782 0.29299604892730712
v -0.09663287550210952 0.12065000087022782 0.30211746692657472
v -0.09178093820810318 0.12065000087022782 0.3108283579349518
v -0.08614595979452133 0.12065000087022782 0.31905439496040344
v -0.07977601140737534 0.12065000087022782 0.32672545313835144
v -0.07272544503211975 0.12065000087022782 0.33377602696418764
v -0.06505440920591354 0.12065000087022782 0.34014594554901124
v -0.05682835355401039 0.12065000087022782 0.34578093886375428
v -0.04811745509505272 0.12065000087022782 0.35063287615776064
v -0.03899603709578514 0.12065000087022782 0.35466039180755616
v -0.02954191900789737 0.12065000087022782 0.35782906413078308
v -0.01983576081693172 0.12065000087022782 0.36011195182800292
v -0.00996036920696497 0.12065000087022782 0.36148950457572936
v -1.361967701645137E-16 0.12065000087022782 0.361950010061264
v 0.00996036920696497 0.12065000087022782 0.36148950457572936
v 0.01983576081693172 0.12065000087022782 0.36011195182800292
v 0.02954191900789737 0.12065000087022782 0.35782906413078308
v 0.03899603709578514 0.12065000087022782 0.35466039180755616
v 0.04811745509505272 0.12065000087022782 0.35063287615776064
v 0.05682835355401039 0.12065000087022782 0.34578093886375428
v 0.06505440920591354 0.12065000087022782 0.34014594554901124
v 0.07272544503211975 0.12065000087022782 0.33377602696418764
v 0.07977601140737534 0.12065000087022782 0.32672545313835144
v 0.08614595979452133 0.12065000087022782 0.31905439496040344
v 0.09178093820810318 0.12065000087022782 0.3108283579349518
v 0.09663287550210952 0.12065000087022782 0.30211746692657472
v 0.10066037625074386 0.12065000087022782 0.29299604892730712
v 0.10382907837629318 0.12065000087022782 0.28354191780090332
v 0.10611194372177124 0.12065000087022782 0.27383574843406676
v 0.10748950392007828 0.12065000087022782 0.26396036148071288
v -0.10159999877214432 0.12065000087022782 0.05079999938607216
v -0.00483432272449135 0.12065000087022782 0.35548493266105652
v -0.01445918716490268 0.12065000087022782 0.3545658588409424
v -0.02395310811698436 0.12065000087022782 0.35273605585098268
v -0.03323010355234146 0.12065000087022782 0.35001209378242492
v -0.04220616444945335 0.12065000087022782 0.3464186191558838
v -0.05079999938607216 0.12065000087022782 0.3419881761074066
v -0.05893378332257271 0.12065000087022782 0.33676090836524964
v -0.06653384864330292 0.12065000087022782 0.33078414201736452
v -0.0735313817858696 0.12065000087022782 0.32411202788352968
v -0.07986299693584442 0.12065000087022782 0.3168049454689026
v -0.08547136187553406 0.12065000087022782 0.30892911553382872
v -0.09030567854642868 0.12065000087022782 0.30055582523345948
v -0.09432218223810196 0.12065000087022782 0.29176089167594908
v -0.09748448431491852 0.12065000087022782 0.28262403607368468
v -0.09976395219564438 0.12065000087022782 0.27322793006896972
v -0.10113994777202606 0.12065000087022782 0.26365768909454344
v -0.10159999877214432 0.12065000087022782 0.25400000810623168
v 0.10113994777202606 0.12065000087022782 0.26365768909454344
v 0.09976395219564438 0.12065000087022782 0.27322793006896972
v 0.09748448431491852 0.12065000087022782 0.28262403607368468
v 0.09432218223810196 0.12065000087022782 0.29176089167594908
v 0.09030567854642868 0.12065000087022782 0.30055582523345948
v 0.08547136187553406 0.12065000087022782 0.30892911553382872
v 0.07986299693584442 0.12065000087022782 0.3168049454689026
v 0.0735313817858696 0.12065000087022782 0.32411202788352968
v 0.06653384864330292 0.12065000087022782 0.33078414201736452
v 0.05893378332257271 0.12065000087022782 0.33676090836524964
v 0.05079999938607216 0.12065000087022782 0.3419881761074066
v 0.04220616444945335 0.12065000087022782 0.3464186191558838
v 0.03323010355234146 0.12065000087022782 0.35001209378242492
v 0.02395310811698436 0.12065000087022782 0.35273605585098268
v 0.01445918716490268 0.12065000087022782 0.3545658588409424
v 0.00483432272449135 0.12065000087022782 0.35548493266105652
# 146 vertices

vn 0 0.99026793241500848 0.1391739696264267
vn 1.9977019292127807E-06 0.99026775360107424 0.13917544484138488
vn 7.548405278612336E-07 0.99026757478713984 0.13917648792266846
vn -2.1129587821633322E-06 0.99026787281036384 0.13917465507984162
vn -2.68706600081714E-07 0.99026811122894288 0.13917289674282074
vn 1.975284476429806E-06 0.99026793241500848 0.13917413353919982
vn 2.0925992885167943E-06 0.99026793241500848 0.13917399942874908
vn -1.0530936833674787E-06 0.99026817083358768 0.13917255401611328
vn -5.172993837732065E-07 0.99026823043823248 0.13917189836502076
vn -1.215962583955843E-06 0.99026829004287712 0.13917163014411926
vn -1.0767302001113421E-06 0.99026829004287712 0.13917143642902374
vn 1.5818407064216444E-06 0.99026817083358768 0.13917224109172822
vn -2.2899000384768442E-07 0.99026781320571904 0.13917507231235504
vn -1.2214112530273269E-06 0.99026781320571904 0.13917484879493714
vn -7.190643458443446E-08 0.99026811122894288 0.13917280733585358
vn -2.393701414860061E-08 0.99026811122894288 0.13917280733585358
vn 9.024695657444681E-08 0.99026817083358768 0.13917258381843566
vn -1.1834657698273077E-06 0.99026817083358768 0.13917247951030732
vn -4.3845744812642806E-07 0.99026840925216672 0.13917073607444764
vn 1.415648853253515E-06 0.99026840925216672 0.13917075097560882
vn 1.8412368851805638E-10 0.99026787281036384 0.13917462527751922
vn -2.3206619061966194E-06 0.99026781320571904 0.13917477428913116
vn -1.9972451354988152E-06 0.99026799201965328 0.1391737163066864
vn 3.1044830848259153E-06 0.99026811122894288 0.1391730010509491
vn 3.4116990264010383E-06 0.99026823043823248 0.1391717791557312
vn -3.3610717764531728E-06 0.99026805162429808 0.13917326927185058
vn -3.5369703255128115E-06 0.99026793241500848 0.13917414844036102
vn 2.3522138690168504E-06 0.99026817083358768 0.13917237520217896
vn 2.54506971941737E-06 0.99026834964752192 0.1391710788011551
vn -1.4899904954290832E-06 0.99026811122894288 0.13917262852191926
vn -1.5046505268401233E-06 0.99026811122894288 0.13917277753353118
vn -1.531616476313502E-06 0.99026811122894288 0.13917279243469238
vn -1.6327874163835077E-06 0.99026781320571904 0.13917487859725952
vn 0 0.99026793241500848 0.13917392492294312
vn 0 0.99026805162429808 0.13917309045791626
vn 0 0.99026781320571904 0.1391749531030655
vn 1.5832765711820684E-06 0.99026799201965328 0.13917386531829834
vn 1.5308092997656786E-06 0.99026811122894288 0.13917277753353118
vn 1.506250669081055E-06 0.99026811122894288 0.13917279243469238
vn 1.24956955005473E-06 0.99026846885681152 0.13917016983032226
vn -2.189779024774907E-06 0.99026799201965328 0.1391734778881073
vn -1.8229541183245601E-06 0.99026769399642944 0.13917596638202668
vn 2.8460351586545585E-06 0.99026840925216672 0.13917067646980286
vn 2.5371700758114457E-06 0.99026864767074592 0.1391691118478775
vn -2.409829221505788E-06 0.99026769399642944 0.13917575776576996
vn -2.3098903056961717E-06 0.99026763439178464 0.1391761600971222
vn 1.0758287771750474E-06 0.99026840925216672 0.13917072117328644
vn 1.8726741473074071E-06 0.99026805162429808 0.13917331397533416
vn 5.013632176087413E-07 0.99026763439178464 0.13917599618434906
vn -9.81085690909822E-07 0.99026823043823248 0.13917194306850434
vn -3.466347209268861E-08 0.99026852846145632 0.1391696184873581
vn 8.258346611000889E-07 0.99026829004287712 0.13917164504528046
vn 2.9010922730776656E-07 0.99026805162429808 0.13917335867881774
vn 3.992515473782987E-08 0.99026811122894288 0.13917283713817596
vn 5.5246282215648534E-08 0.99026811122894288 0.13917277753353118
vn 8.312442787428154E-07 0.99026793241500848 0.13917414844036102
vn 6.281384798967338E-07 0.99026769399642944 0.13917569816112518
vn -3.543787272519694E-07 0.99026793241500848 0.13917416334152222
vn -1.5779967554863106E-07 0.99026852846145632 0.13916973769664764
vn 8.383124736610625E-07 0.99026834964752192 0.13917110860347748
vn 8.910822089092107E-07 0.99026817083358768 0.13917234539985656
vn -9.333069783679093E-07 0.99026846885681152 0.13917012512683868
vn -1.5645156281607342E-07 0.99026763439178464 0.13917608559131622
vn -3.2231602631327405E-07 0.99026769399642944 0.1391759067773819
vn -1.318716272180609E-06 0.99026829004287712 0.13917139172554016
vn -3.4899770184892986E-07 0.99026817083358768 0.13917231559753418
vn 1.5755134654682479E-06 0.9902673363685608 0.13917843997478486
vn -1.9977019292127807E-06 0.99026775360107424 0.13917544484138488
vn 0 0 -1
vn -1 0 0
vn 1 0 0
vn -0.99893295764923088 0 0.04618376865983009
vn -0.99041038751602176 0 0.13815660774707794
vn -0.97343814373016352 0 0.22895008325576784
vn -0.9481607675552368 0 0.3177911341190338
vn -0.91479384899139408 0 0.4039210677146912
vn -0.8736222982406616 0 0.48660469055175784
vn -0.82499688863754272 0 0.56513720750808712
vn -0.76933485269546512 0 0.63884580135345456
vn -0.70710712671279904 0 0.70710641145706176
vn -0.63884508609771728 0 0.769335389137268
vn -0.56513738632202152 0 0.82499682903289792
vn -0.48660439252853392 0 0.8736224174499512
vn -0.40392231941223144 0 0.91479331254959104
vn -0.31778883934020996 0 0.94816154241561888
vn -0.22895245254039764 0 0.97343760728836064
vn -0.13815580308437348 0 0.9904105067253112
vn -0.04618444293737411 0 0.99893295764923088
vn 0.04618444293737411 0 0.99893295764923088
vn 0.13815580308437348 0 0.9904105067253112
vn 0.22895245254039764 0 0.97343760728836064
vn 0.31778883934020996 0 0.94816154241561888
vn 0.40392231941223144 0 0.91479331254959104
vn 0.48660439252853392 0 0.8736224174499512
vn 0.56513738632202152 0 0.82499682903289792
vn 0.63884508609771728 0 0.769335389137268
vn 0.70710712671279904 0 0.70710641145706176
vn 0.76933485269546512 0 0.63884580135345456
vn 0.82499688863754272 0 0.56513720750808712
vn 0.8736222982406616 0 0.48660469055175784
vn 0.91479384899139408 0 0.4039210677146912
vn 0.9481607675552368 0 0.3177911341190338
vn 0.97343814373016352 0 0.22895008325576784
vn 0.99041038751602176 0 0.13815660774707794
vn 0.99893295764923088 0 0.04618376865983009
vn 0 -1 0
vn -0.09505713731050492 0 -0.9954718351364136
vn -0.18925121426582336 0 -0.98192870616912848
vn -0.28173163533210756 0 -0.95949321985244752
vn -0.37166261672973632 0 -0.9283678531646728
vn -0.45822760462760928 0 -0.88883489370346064
vn -0.54064095020294192 0 -0.84125339984893792
vn -0.61815953254699704 0 -0.78605264425277712
vn -0.69007790088653568 0 -0.72373509407043456
vn -0.75575000047683712 0 -0.65486025810241696
vn -0.8145753741264344 0 -0.5800577402114868
vn -0.86602562665939328 0 -0.49999964237213136
vn -0.90963232517242432 0 -0.41541433334350584
vn -0.9450006484985352 0 -0.3270684778690338
vn -0.97181165218353264 0 -0.23575866222381592
vn -0.98982137441635136 0 -0.1423151046037674
vn -0.99886733293533328 0 -0.04758180677890778
vn 0.09505713731050492 0 -0.9954718351364136
vn 0.18925121426582336 0 -0.98192870616912848
vn 0.28173163533210756 0 -0.95949321985244752
vn 0.37166261672973632 0 -0.9283678531646728
vn 0.45822760462760928 0 -0.88883489370346064
vn 0.54064095020294192 0 -0.84125339984893792
vn 0.61815953254699704 0 -0.78605264425277712
vn 0.69007790088653568 0 -0.72373509407043456
vn 0.75575000047683712 0 -0.65486025810241696
vn 0.8145753741264344 0 -0.5800577402114868
vn 0.86602562665939328 0 -0.49999964237213136
vn 0.90963232517242432 0 -0.41541433334350584
vn 0.9450006484985352 0 -0.3270684778690338
vn 0.97181165218353264 0 -0.23575866222381592
vn 0.98982137441635136 0 -0.1423151046037674
vn 0.99886733293533328 0 -0.04758180677890778
# 138 vertex normals

g obj_25748586
s 1
f 1//1 2//1 3//1
f 2//2 4//2 3//2
f 3//3 4//3 5//3
f 4//4 6//4 5//4
f 5//5 6//5 7//5
f 6//6 8//6 7//6
f 7//7 8//7 9//7
f 8//8 10//8 9//8
f 9//9 10//9 11//9
f 10//10 12//10 11//10
f 11//11 12//11 13//11
f 12//12 14//12 13//12
f 13//13 14//13 15//13
f 14//14 16//14 15//14
f 15//15 16//15 17//15
f 16//16 18//16 17//16
f 17//17 18//17 19//17
f 18//18 20//18 19//18
f 19//19 20//19 21//19
f 20//20 22//20 21//20
f 21//21 22//21 23//21
f 22//22 24//22 23//22
f 23//23 24//23 25//23
f 24//24 26//24 25//24
f 25//25 26//25 27//25
f 26//26 28//26 27//26
f 27//27 28//27 29//27
f 28//28 30//28 29//28
f 29//29 30//29 31//29
f 30//30 32//30 31//30
f 31//31 32//31 33//31
f 32//32 34//32 33//32
f 33//33 34//33 35//33
f 34//34 36//34 35//34
f 35//35 36//35 37//35
f 36//35 38//35 37//35
f 39//35 40//35 41//35
f 40//35 42//35 41//35
f 41//36 42//36 43//36
f 42//37 44//37 43//37
f 43//38 44//38 45//38
f 44//39 46//39 45//39
f 45//40 46//40 47//40
f 46//41 48//41 47//41
f 47//42 48//42 49//42
f 48//43 50//43 49//43
f 49//44 50//44 51//44
f 50//45 52//45 51//45
f 51//46 52//46 53//46
f 52//47 54//47 53//47
f 53//48 54//48 55//48
f 54//49 56//49 55//49
f 55//50 56//50 57//50
f 56//51 58//51 57//51
f 57//52 58//52 59//52
f 58//53 60//53 59//53
f 59//54 60//54 61//54
f 60//55 62//55 61//55
f 61//56 62//56 63//56
f 62//57 64//57 63//57
f 63//58 64//58 65//58
f 64//59 66//59 65//59
f 65//60 66//60 67//60
f 66//61 68//61 67//61
f 67//62 68//62 69//62
f 68//63 70//63 69//63
f 69//64 70//64 71//64
f 70//65 72//65 71//65
f 71//66 72//66 1//66
f 72//67 73//67 1//67
f 1//68 73//68 2//68
f 74//69 75//69 38//69
f 75//69 37//69 38//69
f 37//70 75//70 35//70
f 75//70 76//70 35//70
f 77//71 74//71 36//71
f 74//71 38//71 36//71
f 78//70 79//70 40//70
f 79//70 42//70 40//70
f 42//72 79//72 80//72
f 42//72 80//72 44//72
f 80//73 81//73 44//73
f 44//73 81//73 46//73
f 81//74 82//74 46//74
f 46//74 82//74 48//74
f 82//75 83//75 48//75
f 48//75 83//75 50//75
f 83//76 84//76 50//76
f 50//76 84//76 52//76
f 84//77 85//77 52//77
f 52//77 85//77 54//77
f 85//78 86//78 54//78
f 54//78 86//78 56//78
f 86//79 87//79 56//79
f 56//79 87//79 58//79
f 87//80 88//80 58//80
f 58//80 88//80 60//80
f 88//81 89//81 60//81
f 60//81 89//81 62//81
f 89//82 90//82 62//82
f 62//82 90//82 64//82
f 90//83 91//83 64//83
f 64//83 91//83 66//83
f 91//84 92//84 66//84
f 66//84 92//84 68//84
f 92//85 93//85 68//85
f 68//85 93//85 70//85
f 93//86 94//86 70//86
f 70//86 94//86 72//86
f 94//87 95//87 72//87
f 72//87 95//87 73//87
f 95//88 96//88 73//88
f 73//88 96//88 2//88
f 96//89 97//89 2//89
f 2//89 97//89 4//89
f 97//90 98//90 4//90
f 4//90 98//90 6//90
f 98//91 99//91 6//91
f 6//91 99//91 8//91
f 99//92 100//92 8//92
f 8//92 100//92 10//92
f 100//93 101//93 10//93
f 10//93 101//93 12//93
f 101//94 102//94 12//94
f 12//94 102//94 14//94
f 102//95 103//95 14//95
f 14//95 103//95 16//95
f 103//96 104//96 16//96
f 16//96 104//96 18//96
f 104//97 105//97 18//97
f 18//97 105//97 20//97
f 105//98 106//98 20//98
f 20//98 106//98 22//98
f 106//99 107//99 22//99
f 22//99 107//99 24//99
f 107//100 108//100 24//100
f 24//100 108//100 26//100
f 108//101 109//101 26//101
f 26//101 109//101 28//101
f 109//102 110//102 28//102
f 28//102 110//102 30//102
f 110//103 111//103 30//103
f 30//103 111//103 32//103
f 111//104 112//104 32//104
f 32//104 112//104 34//104
f 112//105 77//105 34//105
f 34//105 77//105 36//105
f 113//69 78//69 39//69
f 78//69 40//69 39//69
f 114//106 95//106 115//106
f 95//106 94//106 115//106
f 115//106 94//106 116//106
f 94//106 93//106 116//106
f 116//106 93//106 117//106
f 93//106 92//106 117//106
f 117//106 92//106 118//106
f 92//106 91//106 118//106
f 118//106 91//106 119//106
f 91//106 90//106 119//106
f 119//106 90//106 120//106
f 90//106 89//106 120//106
f 120//106 89//106 121//106
f 89//106 88//106 121//106
f 121//106 88//106 122//106
f 88//106 87//106 122//106
f 122//106 87//106 123//106
f 87//106 86//106 123//106
f 123//106 86//106 124//106
f 86//106 85//106 124//106
f 124//106 85//106 125//106
f 85//106 84//106 125//106
f 125//106 84//106 126//106
f 84//106 83//106 126//106
f 126//106 83//106 127//106
f 83//106 82//106 127//106
f 127//106 82//106 128//106
f 82//106 81//106 128//106
f 128//106 81//106 129//106
f 81//106 80//106 129//106
f 129//106 80//106 130//106
f 80//106 79//106 130//106
f 130//106 79//106 113//106
f 79//106 78//106 113//106
f 75//106 74//106 76//106
f 74//106 77//106 76//106
f 76//106 77//106 131//106
f 77//106 112//106 131//106
f 131//106 112//106 132//106
f 112//106 111//106 132//106
f 132//106 111//106 133//106
f 111//106 110//106 133//106
f 133//106 110//106 134//106
f 110//106 109//106 134//106
f 134//106 109//106 135//106
f 109//106 108//106 135//106
f 135//106 108//106 136//106
f 108//106 107//106 136//106
f 136//106 107//106 137//106
f 107//106 106//106 137//106
f 137//106 106//106 138//106
f 106//106 105//106 138//106
f 138//106 105//106 139//106
f 105//106 104//106 139//106
f 139//106 104//106 140//106
f 104//106 103//106 140//106
f 140//106 103//106 141//106
f 103//106 102//106 141//106
f 141//106 102//106 142//106
f 102//106 101//106 142//106
f 142//106 101//106 143//106
f 101//106 100//106 143//106
f 143//106 100//106 144//106
f 100//106 99//106 144//106
f 144//106 99//106 145//106
f 99//106 98//106 145//106
f 145//106 98//106 146//106
f 98//106 97//106 146//106
f 146//106 97//106 114//106
f 97//106 96//106 114//106
f 114//106 96//106 95//106
f 130//71 113//71 41//71
f 113//71 39//71 41//71
f 1//69 3//69 146//69
f 3//107 5//107 146//107
f 146//107 5//107 145//107
f 5//108 7//108 145//108
f 145//108 7//108 144//108
f 7//109 9//109 144//109
f 144//109 9//109 143//109
f 9//110 11//110 143//110
f 143//110 11//110 142//110
f 11//111 13//111 142//111
f 142//111 13//111 141//111
f 13//112 15//112 141//112
f 141//112 15//112 140//112
f 15//113 17//113 140//113
f 140//113 17//113 139//113
f 17//114 19//114 139//114
f 139//114 19//114 138//114
f 19//115 21//115 138//115
f 138//115 21//115 137//115
f 21//116 23//116 137//116
f 137//116 23//116 136//116
f 23//117 25//117 136//117
f 136//117 25//117 135//117
f 25//118 27//118 135//118
f 135//118 27//118 134//118
f 27//119 29//119 134//119
f 134//119 29//119 133//119
f 29//120 31//120 133//120
f 133//120 31//120 132//120
f 31//121 33//121 132//121
f 132//121 33//121 131//121
f 33//122 35//122 131//122
f 131//122 35//122 76//122
f 146//69 114//69 1//69
f 114//123 115//123 1//123
f 1//123 115//123 71//123
f 115//124 116//124 71//124
f 71//124 116//124 69//124
f 116//125 117//125 69//125
f 69//125 117//125 67//125
f 117//126 118//126 67//126
f 67//126 118//126 65//126
f 118//127 119//127 65//127
f 65//127 119//127 63//127
f 119//128 120//128 63//128
f 63//128 120//128 61//128
f 120//129 121//129 61//129
f 61//129 121//129 59//129
f 121//130 122//130 59//130
f 59//130 122//130 57//130
f 122//131 123//131 57//131
f 57//131 123//131 55//131
f 123//132 124//132 55//132
f 55//132 124//132 53//132
f 124//133 125//133 53//133
f 53//133 125//133 51//133
f 125//134 126//134 51//134
f 51//134 126//134 49//134
f 126//135 127//135 49//135
f 49//135 127//135 47//135
f 127//136 128//136 47//136
f 47//136 128//136 45//136
f 128//137 129//137 45//137
f 45//137 129//137 43//137
f 129//138 130//138 43//138
f 43//138 130//138 41//138
#288 polygons

