mtllib Ninja Actuator.mtl
g Part 1
usemtl 0.615686_0.811765_0.929412_0.000000_0.000000
o mesh0
v -0.00366617 0.0503441 0.003175 
v -0.00366617 0.0503441 0 
v 0.00366617 0.0503441 0 
v 0.00366617 0.0503441 0.003175 
vn 1.83759e-15 -1 6.12323e-17 
vn 1.83759e-15 -1 6.12323e-17 
vn 1.83759e-15 -1 6.12323e-17 
vn 1.83759e-15 -1 6.12323e-17 
f 1//1 2//2 3//3 
f 3//3 4//4 1//1 
o mesh1
v 0.00366617 0.0503441 0.003175 
v 0.00366617 0.0503441 0 
v 0.00733235 0.0439941 0 
v 0.00733235 0.0439941 0.003175 
vn -0.866025 -0.5 6.12323e-17 
vn -0.866025 -0.5 6.12323e-17 
vn -0.866025 -0.5 6.12323e-17 
vn -0.866025 -0.5 6.12323e-17 
f 5//5 6//6 7//7 
f 7//7 8//8 5//5 
o mesh2
v 0.00733235 0.0439941 0.003175 
v 0.00733235 0.0439941 0 
v 0.00366617 0.0376441 0 
v 0.00366617 0.0376441 0.003175 
vn -0.866025 0.5 6.12323e-17 
vn -0.866025 0.5 6.12323e-17 
vn -0.866025 0.5 6.12323e-17 
vn -0.866025 0.5 6.12323e-17 
f 9//9 10//10 11//11 
f 11//11 12//12 9//9 
o mesh3
v 0.00366617 0.0376441 0.003175 
v 0.00366617 0.0376441 0 
v -0.00366617 0.0376441 0 
v -0.00366617 0.0376441 0.003175 
vn 6.12323e-17 1 6.12323e-17 
vn 6.12323e-17 1 6.12323e-17 
vn 6.12323e-17 1 6.12323e-17 
vn 6.12323e-17 1 6.12323e-17 
f 13//13 14//14 15//15 
f 15//15 16//16 13//13 
o mesh4
v -0.00366617 0.0376441 0.003175 
v -0.00366617 0.0376441 0 
v -0.00733235 0.0439941 0 
v -0.00733235 0.0439941 0.003175 
vn 0.866025 0.5 6.12323e-17 
vn 0.866025 0.5 6.12323e-17 
vn 0.866025 0.5 6.12323e-17 
vn 0.866025 0.5 6.12323e-17 
f 17//17 18//18 19//19 
f 19//19 20//20 17//17 
o mesh5
v -0.00733235 0.0439941 0.003175 
v -0.00733235 0.0439941 0 
v -0.00366617 0.0503441 0 
v -0.00366617 0.0503441 0.003175 
vn 0.866025 -0.5 6.12323e-17 
vn 0.866025 -0.5 6.12323e-17 
vn 0.866025 -0.5 6.12323e-17 
vn 0.866025 -0.5 6.12323e-17 
f 21//21 22//22 23//23 
f 23//23 24//24 21//21 
o mesh6
v 0.0326007 0.0628161 0.003175 
v -0.0326007 0.0628161 0.003175 
v -0.00366617 0.0503441 0.003175 
v 0.00366617 0.0503441 0.003175 
v 0.00366617 0.0376441 0.003175 
v -5.1946e-18 0.00635 0.003175 
v 0.00733235 0.0439941 0.003175 
v -0.00733235 0.0439941 0.003175 
v -0.00366617 0.0376441 0.003175 
vn 0 0 1 
vn 0 0 1 
vn 0 0 1 
vn 0 0 1 
vn 0 0 1 
vn 0 0 1 
vn 0 0 1 
vn 0 0 1 
vn 0 0 1 
f 25//25 26//26 27//27 
f 27//27 28//28 25//25 
f 29//29 30//30 25//25 
f 28//28 31//31 25//25 
f 25//25 31//31 29//29 
f 26//26 32//32 27//27 
f 32//32 26//26 30//30 
f 30//30 33//33 32//32 
f 30//30 29//29 33//33 
o mesh7
v -0.0381 0.0659911 0 
v 0.0381 0.0659911 0 
v 0.00366617 0.0503441 0 
v -0.00366617 0.0503441 0 
v -0.00733235 0.0439941 0 
v 1.04083e-17 -2.77556e-17 0 
v 0.00733235 0.0439941 0 
v 0.00366617 0.0376441 0 
v -0.00366617 0.0376441 0 
vn 1.22465e-16 0 -1 
vn 1.22465e-16 0 -1 
vn 1.22465e-16 0 -1 
vn 1.22465e-16 0 -1 
vn 1.22465e-16 0 -1 
vn 1.22465e-16 0 -1 
vn 1.22465e-16 0 -1 
vn 1.22465e-16 0 -1 
vn 1.22465e-16 0 -1 
f 34//34 35//35 36//36 
f 36//36 37//37 34//34 
f 37//37 38//38 34//34 
f 39//39 34//34 38//38 
f 35//35 40//40 36//36 
f 41//41 40//40 35//35 
f 35//35 39//39 41//41 
f 42//42 41//41 39//39 
f 38//38 42//42 39//39 
o mesh8
v -0.0381 0.0659911 0 
v -0.0326007 0.0628161 0.003175 
v 0.0326007 0.0628161 0.003175 
v 0.0381 0.0659911 0 
vn -1.13711e-16 0.707107 0.707107 
vn -1.13711e-16 0.707107 0.707107 
vn -1.13711e-16 0.707107 0.707107 
vn -1.13711e-16 0.707107 0.707107 
f 43//43 44//44 45//45 
f 45//45 46//46 43//43 
o mesh9
v 0.0381 0.0659911 0 
v 0.0326007 0.0628161 0.003175 
v -5.1946e-18 0.00635 0.003175 
v 1.04083e-17 -2.77556e-17 0 
vn 0.612372 -0.353553 0.707107 
vn 0.612372 -0.353553 0.707107 
vn 0.612372 -0.353553 0.707107 
vn 0.612372 -0.353553 0.707107 
f 47//47 48//48 49//49 
f 49//49 50//50 47//47 
o mesh10
v -0.0381 0.0659911 0 
v 1.04083e-17 -2.77556e-17 0 
v -5.1946e-18 0.00635 0.003175 
v -0.0326007 0.0628161 0.003175 
vn -0.612372 -0.353553 0.707107 
vn -0.612372 -0.353553 0.707107 
vn -0.612372 -0.353553 0.707107 
vn -0.612372 -0.353553 0.707107 
f 51//51 52//52 53//53 
f 53//53 54//54 51//51 
