# OBJ generated by ONSHAPE BY PTC INC, 1.203 Units = meters
mtllib Assembly 4 - Intake Kicker.mtl
g Intake Kicker
v -0.4572 0.119185 0.0202078 
v 0 0.119185 0.0202078 
v 0 0.00709636 -0.0395011 
v -0.4572 0.00709636 -0.0395011 
v -0.4572 0.148785 0.0910382 
v 0 0.148785 0.0910382 
v -0.4572 0.14732 0.0916503 
v 0 0.14732 0.0916503 
v -0.4572 0.117939 0.0213426 
v -0.4572 0.00635 -0.0381 
v 0 0.117939 0.0213426 
v 0 0.00635 -0.0381 
vn 0 0.470149 -0.882587 
vn 0 0.922673 -0.385583 
vn 0 0.385583 0.922673 
vn -1 0 0 
vn 1 0 0 
vn 0 -0.922673 0.385583 
vn 0 -0.470149 0.882587 
vn 0 -0.882587 -0.470149 
usemtl 0.301961_0.290196_0.262745_0.000000_0.392157
o mesh0
f 1//1 2//1 3//1 
f 3//1 4//1 1//1 
o mesh1
f 5//2 6//2 2//2 
f 2//2 1//2 5//2 
o mesh2
f 7//3 8//3 6//3 
f 6//3 5//3 7//3 
o mesh3
f 5//4 1//4 9//4 
f 4//4 10//4 9//4 
f 9//4 1//4 4//4 
f 9//4 7//4 5//4 
o mesh4
f 3//5 2//5 11//5 
f 6//5 8//5 11//5 
f 11//5 2//5 6//5 
f 11//5 12//5 3//5 
o mesh5
f 9//6 11//6 8//6 
f 8//6 7//6 9//6 
o mesh6
f 10//7 12//7 11//7 
f 11//7 9//7 10//7 
o mesh7
f 4//8 3//8 12//8 
f 12//8 10//8 4//8 
