# OBJ generated by ONSHAPE BY PTC INC, 1.203 Units = meters
mtllib Assembly 4 - Intake Right Funnel.mtl
g Intake Right Funnel
v 0.0127 0.132389 -0.0862634 
v 0.0127 0.15048 -0.0703704 
v 0.0142875 0.15048 -0.0703704 
v 0.0142875 0.132389 -0.0862634 
v 0.0127 0.0820975 -0.0290169 
v 0.0142875 0.0820975 -0.0290169 
v 0.0142875 0.100188 -0.013124 
v 0.0127 0.100188 -0.013124 
v 0.0128896 0.151379 -0.0695804 
v 0.0143994 0.151011 -0.0699042 
v 0.0143375 0.150837 -0.0700567 
v 0.0130349 0.151664 -0.0693306 
v 0.0144851 0.151179 -0.0697568 
v 0.0127212 0.150784 -0.0701032 
v 0.0143 0.15066 -0.0702127 
v 0.0127846 0.151085 -0.0698389 
v 0.013219 0.151935 -0.0690922 
v 0.0145938 0.151339 -0.0696161 
v 0.0136949 0.152427 -0.0686598 
v 0.0148747 0.151629 -0.0693609 
v 0.0147241 0.15149 -0.0694836 
v 0.0139816 0.152643 -0.0684706 
v 0.0150439 0.151756 -0.0692492 
v 0.0134398 0.152191 -0.0688678 
v 0.0142967 0.152834 -0.0683022 
v 0.0152298 0.151869 -0.0691498 
v 0.0146368 0.153 -0.0681564 
v 0.0154305 0.151967 -0.0690638 
v 0.0139816 0.102351 -0.0112241 
v 0.0150439 0.101464 -0.0120028 
v 0.0152298 0.101577 -0.0119034 
v 0.0136949 0.102135 -0.0114134 
v 0.0148747 0.101337 -0.0121144 
v 0.0128896 0.101087 -0.012334 
v 0.0127846 0.100793 -0.0125925 
v 0.0143375 0.100545 -0.0128103 
v 0.0127212 0.100492 -0.0128568 
v 0.0143 0.100368 -0.0129663 
v 0.0134398 0.101899 -0.0116213 
v 0.0147241 0.101198 -0.0122372 
v 0.013219 0.101643 -0.0118457 
v 0.0145938 0.101047 -0.0123696 
v 0.0130349 0.101372 -0.0120842 
v 0.0144851 0.100887 -0.0125103 
v 0.0143994 0.100719 -0.0126578 
v 0.0146368 0.102708 -0.01091 
v 0.0142967 0.102542 -0.0110557 
v 0.0154305 0.101675 -0.0118174 
v 0.188676 0.178197 0.055408 
v 0.188676 0.228489 -0.00183843 
v 0.18947 0.177164 0.0545006 
v 0.18947 0.227456 -0.00274581 
vn 0 0.66 -0.751266 
vn 0 -0.751266 -0.66 
vn 0 -0.66 0.751266 
vn -1 0 0 
vn 1 0 0 
vn 1.36592e-16 0.66 -0.751266 
vn -1.36592e-16 -0.66 0.751266 
vn -1 2.83652e-14 2.47375e-14 
vn -0.994522 0.0785286 0.0689888 
vn -0.978148 0.156197 0.137222 
vn -0.951057 0.232154 0.203951 
vn -0.913545 0.305567 0.268446 
vn -0.866025 0.375633 0.33 
vn -0.809017 0.441583 0.387938 
vn -0.743145 0.502695 0.441626 
vn -0.669131 0.558299 0.490476 
vn -0.587785 0.607787 0.533951 
vn -0.5 0.650615 0.571577 
vn 0.866025 0.375633 0.33 
vn -1.38778e-16 0.66 -0.751266 
vn 5.55112e-17 -0.66 0.751266 
vn 0.5 -0.650615 -0.571577 
vn 0.587785 -0.607787 -0.533951 
vn 0.669131 -0.558299 -0.490476 
vn 0.743145 -0.502695 -0.441626 
vn 0.809017 -0.441583 -0.387938 
vn 0.866025 -0.375633 -0.33 
vn 0.913545 -0.305567 -0.268446 
vn 0.951057 -0.232154 -0.203951 
vn 0.978148 -0.156197 -0.137222 
vn 0.994522 -0.0785286 -0.0689888 
vn 1 -4.77157e-14 -4.17372e-14 
usemtl 0.917647_0.917647_0.917647_0.000000_0.000000
o mesh0
f 1//1 2//1 3//1 
f 3//1 4//1 1//1 
o mesh1
f 5//2 1//2 4//2 
f 4//2 6//2 5//2 
o mesh2
f 5//3 6//3 7//3 
f 7//3 8//3 5//3 
o mesh3
f 8//4 2//4 1//4 
f 1//4 5//4 8//4 
o mesh4
f 7//5 6//5 4//5 
f 4//5 3//5 7//5 
o mesh5
f 9//6 10//6 11//6 
f 12//6 13//6 10//6 
f 14//6 15//6 3//6 
f 16//6 11//6 15//6 
f 10//6 9//6 12//6 
f 17//6 18//6 13//6 
f 19//6 20//6 21//6 
f 19//6 22//6 23//6 
f 15//6 14//6 16//6 
f 13//6 12//6 17//6 
f 24//6 21//6 18//6 
f 23//6 20//6 19//6 
f 11//6 16//6 9//6 
f 21//6 24//6 19//6 
f 25//6 26//6 23//6 
f 27//6 28//6 26//6 
f 18//6 17//6 24//6 
f 26//6 25//6 27//6 
f 23//6 22//6 25//6 
f 3//6 2//6 14//6 
o mesh6
f 29//7 30//7 31//7 
f 29//7 32//7 33//7 
f 34//7 35//7 36//7 
f 35//7 37//7 38//7 
f 33//7 30//7 29//7 
f 32//7 39//7 40//7 
f 39//7 41//7 42//7 
f 41//7 43//7 44//7 
f 38//7 36//7 35//7 
f 37//7 8//7 7//7 
f 40//7 33//7 32//7 
f 44//7 42//7 41//7 
f 43//7 34//7 45//7 
f 7//7 38//7 37//7 
f 42//7 40//7 39//7 
f 36//7 45//7 34//7 
f 46//7 47//7 31//7 
f 45//7 44//7 43//7 
f 31//7 47//7 29//7 
f 31//7 48//7 46//7 
o mesh7
f 2//8 8//8 37//9 
f 14//9 37//9 35//10 
f 16//10 35//10 34//11 
f 9//11 34//11 43//12 
f 12//12 43//12 41//13 
f 17//13 41//13 39//14 
f 24//14 39//14 32//15 
f 19//15 32//15 29//16 
f 22//16 29//16 47//17 
f 25//17 47//17 46//18 
f 46//18 27//18 25//17 
f 47//17 25//17 22//16 
f 29//16 22//16 19//15 
f 32//15 19//15 24//14 
f 39//14 24//14 17//13 
f 41//13 17//13 12//12 
f 43//12 12//12 9//11 
f 34//11 9//11 16//10 
f 35//10 16//10 14//9 
f 37//9 14//9 2//8 
o mesh8
f 49//18 50//18 27//18 
f 27//18 46//18 49//18 
o mesh9
f 49//19 51//19 52//19 
f 52//19 50//19 49//19 
o mesh10
f 27//20 50//20 52//20 
f 52//20 28//20 27//20 
o mesh11
f 46//21 48//21 51//21 
f 51//21 49//21 46//21 
o mesh12
f 51//22 48//22 28//22 
f 28//22 52//22 51//22 
o mesh13
f 26//23 28//22 48//22 
f 23//24 26//23 31//23 
f 20//25 23//24 30//24 
f 21//26 20//25 33//25 
f 18//27 21//26 40//26 
f 13//28 18//27 42//27 
f 10//29 13//28 44//28 
f 11//30 10//29 45//29 
f 15//31 11//30 36//30 
f 3//32 15//31 38//31 
f 38//31 7//32 3//32 
f 36//30 38//31 15//31 
f 45//29 36//30 11//30 
f 44//28 45//29 10//29 
f 42//27 44//28 13//28 
f 40//26 42//27 18//27 
f 33//25 40//26 21//26 
f 30//24 33//25 20//25 
f 31//23 30//24 23//24 
f 48//22 31//23 26//23 
