# OBJ generated by ONSHAPE BY PTC INC, 1.203 Units = meters
mtllib Assembly 4 - Shooter Hood.mtl
g Shooter Hood
v 0 0.348711 0.120111 
v -0.1524 0.348711 0.120111 
v -0.1524 0.339665 0.128521 
v 0 0.339665 0.128521 
v -0.1524 0.330032 0.136252 
v 0 0.330032 0.136252 
v -0.1524 0.319863 0.143263 
v 0 0.319863 0.143263 
v -0.1524 0.309212 0.149516 
v 0 0.309212 0.149516 
v -0.1524 0.298134 0.154978 
v 0 0.298134 0.154978 
v -0.1524 0.286688 0.159622 
v 0 0.286688 0.159622 
v -0.1524 0.274935 0.163421 
v 0 0.274935 0.163421 
v -0.1524 0.262938 0.166356 
v 0 0.262938 0.166356 
v -0.1524 0.250758 0.168411 
v 0 0.250758 0.168411 
v -0.1524 0.238462 0.169576 
v 0 0.238462 0.169576 
v -0.1524 0.226113 0.169844 
v 0 0.226113 0.169844 
v -0.1524 0.213778 0.169215 
v 0 0.213778 0.169215 
v -0.1524 0.201521 0.16769 
v 0 0.201521 0.16769 
v -0.1524 0.189407 0.165279 
v 0 0.189407 0.165279 
v -0.1524 0.1775 0.161994 
v 0 0.1775 0.161994 
v -0.1524 0.165864 0.157853 
v 0 0.165864 0.157853 
v -0.1524 0.154559 0.152876 
v 0 0.154559 0.152876 
v -0.1524 0.143646 0.147092 
v 0 0.143646 0.147092 
v -0.1524 0.133182 0.14053 
v 0 0.133182 0.14053 
v -0.1524 0.123222 0.133225 
v 0 0.123222 0.133225 
v -0.1524 0.11382 0.125215 
v 0 0.11382 0.125215 
v -0.1524 0.105024 0.116543 
v 0 0.105024 0.116543 
v -0.1524 0.0968822 0.107255 
v 0 0.0968822 0.107255 
v -0.1524 0.0894366 0.0974002 
v 0 0.0894366 0.0974002 
v -0.1524 0.0827267 0.0870302 
v 0 0.0827267 0.0870302 
v -0.1524 0.0767882 0.0762 
v 0 0.0767882 0.0762 
v 0 0.347588 0.118988 
v -0.1524 0.347588 0.118988 
v 0 0.0847373 0.0872925 
v 0 0.0785666 0.0762 
v -0.1524 0.0785666 0.0762 
v 0 0.0917266 0.0978884 
v -0.1524 0.0847373 0.0872925 
v 0 0.0994947 0.107927 
v -0.1524 0.0917266 0.0978884 
v 0 0.107997 0.117352 
v -0.1524 0.0994947 0.107927 
v 0 0.117186 0.126109 
v -0.1524 0.107997 0.117352 
v 0 0.127009 0.134148 
v -0.1524 0.117186 0.126109 
v 0 0.13741 0.141425 
v -0.1524 0.127009 0.134148 
v 0 0.14833 0.147896 
v -0.1524 0.13741 0.141425 
v 0 0.159707 0.153526 
v -0.1524 0.14833 0.147896 
v 0 0.171475 0.158282 
v -0.1524 0.159707 0.153526 
v 0 0.183569 0.162138 
v -0.1524 0.171475 0.158282 
v 0 0.195919 0.165071 
v -0.1524 0.183569 0.162138 
v 0 0.208455 0.167065 
v -0.1524 0.195919 0.165071 
v 0 0.221105 0.168108 
v -0.1524 0.208455 0.167065 
v 0 0.233798 0.168195 
v -0.1524 0.221105 0.168108 
v 0 0.246462 0.167324 
v -0.1524 0.233798 0.168195 
v 0 0.259023 0.165502 
v -0.1524 0.246462 0.167324 
v 0 0.271412 0.162738 
v -0.1524 0.259023 0.165502 
v 0 0.283557 0.159048 
v -0.1524 0.271412 0.162738 
v 0 0.29539 0.154453 
v -0.1524 0.283557 0.159048 
v 0 0.306842 0.148979 
v -0.1524 0.29539 0.154453 
v 0 0.317849 0.142657 
v -0.1524 0.306842 0.148979 
v 0 0.328349 0.135524 
v -0.1524 0.317849 0.142657 
v 0 0.338281 0.127619 
v -0.1524 0.328349 0.135524 
v -0.1524 0.338281 0.127619 
vn 0 0.707107 0.707107 
vn 0 0.653854 0.75662 
vn 0 0.597145 0.802134 
vn 0 0.537278 0.843405 
vn 0 0.47457 0.880218 
vn 0 0.409353 0.912376 
vn 0 0.341971 0.93971 
vn 0 0.272782 0.962076 
vn 0 0.20215 0.979355 
vn 0 0.130449 0.991455 
vn 0 0.0580584 0.998313 
vn 0 -0.0146391 0.999893 
vn 0 -0.0872592 0.996186 
vn 0 -0.159418 0.987211 
vn 0 -0.230734 0.973017 
vn 0 -0.30083 0.953678 
vn 0 -0.369335 0.929296 
vn 0 -0.435887 0.900001 
vn 0 -0.500135 0.865948 
vn 0 -0.561738 0.827315 
vn 0 -0.620371 0.784308 
vn 0 -0.675724 0.737155 
vn 0 -0.727504 0.686103 
vn 0 -0.775438 0.631424 
vn 0 -0.819271 0.573406 
vn 0 -0.858773 0.512357 
vn 0 -0.893734 0.448598 
vn 0 0.707107 -0.707107 
vn 0 0.854926 -0.518749 
vn 0 0.891597 -0.45283 
vn 0 0.813391 -0.581717 
vn 0 0.854926 -0.518749 
vn 0 0.767228 -0.641374 
vn 0 0.813391 -0.581717 
vn 0 0.7167 -0.697382 
vn 0 0.767228 -0.641374 
vn 0 0.662093 -0.749422 
vn 0 0.7167 -0.697382 
vn 0 0.603719 -0.797198 
vn 0 0.662093 -0.749422 
vn 0 0.541909 -0.840437 
vn 0 0.603719 -0.797198 
vn 0 0.477016 -0.878894 
vn 0 0.541909 -0.840437 
vn 0 0.409409 -0.912351 
vn 0 0.477016 -0.878894 
vn 0 0.339473 -0.940616 
vn 0 0.409409 -0.912351 
vn 0 0.267604 -0.963529 
vn 0 0.339473 -0.940616 
vn 0 0.194214 -0.980959 
vn 0 0.267604 -0.963529 
vn 0 0.119718 -0.992808 
vn 0 0.194214 -0.980959 
vn 0 0.0445404 -0.999008 
vn 0 0.119718 -0.992808 
vn 0 -0.0308903 -0.999523 
vn 0 0.0445404 -0.999008 
vn 0 -0.106145 -0.994351 
vn 0 -0.0308903 -0.999523 
vn 0 -0.180796 -0.983521 
vn 0 -0.106145 -0.994351 
vn 0 -0.254418 -0.967094 
vn 0 -0.180796 -0.983521 
vn 0 -0.326593 -0.945165 
vn 0 -0.254418 -0.967094 
vn 0 -0.396909 -0.917858 
vn 0 -0.326593 -0.945165 
vn 0 -0.464967 -0.885328 
vn 0 -0.396909 -0.917858 
vn 0 -0.530379 -0.847761 
vn 0 -0.464967 -0.885328 
vn 0 -0.592773 -0.80537 
vn 0 -0.530379 -0.847761 
vn 0 -0.651794 -0.758396 
vn 0 -0.592773 -0.80537 
vn 0 -0.707107 -0.707107 
vn 0 -0.651794 -0.758396 
vn -1 0 0 
vn 1 0 0 
vn 0 0 -1 
usemtl 0.301961_0.290196_0.262745_0.000000_0.290196
o mesh0
f 1//1 2//1 3//2 
f 4//2 3//2 5//3 
f 6//3 5//3 7//4 
f 8//4 7//4 9//5 
f 10//5 9//5 11//6 
f 12//6 11//6 13//7 
f 14//7 13//7 15//8 
f 16//8 15//8 17//9 
f 18//9 17//9 19//10 
f 20//10 19//10 21//11 
f 22//11 21//11 23//12 
f 24//12 23//12 25//13 
f 26//13 25//13 27//14 
f 28//14 27//14 29//15 
f 30//15 29//15 31//16 
f 32//16 31//16 33//17 
f 34//17 33//17 35//18 
f 36//18 35//18 37//19 
f 38//19 37//19 39//20 
f 40//20 39//20 41//21 
f 42//21 41//21 43//22 
f 44//22 43//22 45//23 
f 46//23 45//23 47//24 
f 48//24 47//24 49//25 
f 50//25 49//25 51//26 
f 52//26 51//26 53//27 
f 53//27 54//27 52//26 
f 51//26 52//26 50//25 
f 49//25 50//25 48//24 
f 47//24 48//24 46//23 
f 45//23 46//23 44//22 
f 43//22 44//22 42//21 
f 41//21 42//21 40//20 
f 39//20 40//20 38//19 
f 37//19 38//19 36//18 
f 35//18 36//18 34//17 
f 33//17 34//17 32//16 
f 31//16 32//16 30//15 
f 29//15 30//15 28//14 
f 27//14 28//14 26//13 
f 25//13 26//13 24//12 
f 23//12 24//12 22//11 
f 21//11 22//11 20//10 
f 19//10 20//10 18//9 
f 17//9 18//9 16//8 
f 15//8 16//8 14//7 
f 13//7 14//7 12//6 
f 11//6 12//6 10//5 
f 9//5 10//5 8//4 
f 7//4 8//4 6//3 
f 5//3 6//3 4//2 
f 3//2 4//2 1//1 
o mesh1
f 2//28 1//28 55//28 
f 55//28 56//28 2//28 
o mesh2
f 57//29 58//30 59//30 
f 60//31 57//29 61//32 
f 62//33 60//31 63//34 
f 64//35 62//33 65//36 
f 66//37 64//35 67//38 
f 68//39 66//37 69//40 
f 70//41 68//39 71//42 
f 72//43 70//41 73//44 
f 74//45 72//43 75//46 
f 76//47 74//45 77//48 
f 78//49 76//47 79//50 
f 80//51 78//49 81//52 
f 82//53 80//51 83//54 
f 84//55 82//53 85//56 
f 86//57 84//55 87//58 
f 88//59 86//57 89//60 
f 90//61 88//59 91//62 
f 92//63 90//61 93//64 
f 94//65 92//63 95//66 
f 96//67 94//65 97//68 
f 98//69 96//67 99//70 
f 100//71 98//69 101//72 
f 102//73 100//71 103//74 
f 104//75 102//73 105//76 
f 55//77 104//75 106//78 
f 106//78 56//77 55//77 
f 105//76 106//78 104//75 
f 103//74 105//76 102//73 
f 101//72 103//74 100//71 
f 99//70 101//72 98//69 
f 97//68 99//70 96//67 
f 95//66 97//68 94//65 
f 93//64 95//66 92//63 
f 91//62 93//64 90//61 
f 89//60 91//62 88//59 
f 87//58 89//60 86//57 
f 85//56 87//58 84//55 
f 83//54 85//56 82//53 
f 81//52 83//54 80//51 
f 79//50 81//52 78//49 
f 77//48 79//50 76//47 
f 75//46 77//48 74//45 
f 73//44 75//46 72//43 
f 71//42 73//44 70//41 
f 69//40 71//42 68//39 
f 67//38 69//40 66//37 
f 65//36 67//38 64//35 
f 63//34 65//36 62//33 
f 61//32 63//34 60//31 
f 59//30 61//32 57//29 
o mesh3
f 63//79 49//79 47//79 
f 45//79 67//79 65//79 
f 29//79 83//79 81//79 
f 17//79 15//79 95//79 
f 15//79 13//79 97//79 
f 101//79 99//79 11//79 
f 103//79 101//79 9//79 
f 105//79 103//79 7//79 
f 106//79 105//79 5//79 
f 61//79 51//79 49//79 
f 65//79 47//79 45//79 
f 39//79 73//79 71//79 
f 37//79 75//79 73//79 
f 35//79 77//79 75//79 
f 33//79 79//79 77//79 
f 31//79 81//79 79//79 
f 81//79 31//79 29//79 
f 23//79 21//79 89//79 
f 21//79 19//79 91//79 
f 97//79 95//79 15//79 
f 13//79 11//79 99//79 
f 9//79 7//79 103//79 
f 5//79 3//79 106//79 
f 47//79 65//79 63//79 
f 43//79 69//79 67//79 
f 41//79 71//79 69//79 
f 73//79 39//79 37//79 
f 77//79 35//79 33//79 
f 29//79 27//79 83//79 
f 27//79 25//79 85//79 
f 25//79 23//79 87//79 
f 91//79 89//79 21//79 
f 19//79 17//79 93//79 
f 99//79 97//79 13//79 
f 7//79 5//79 105//79 
f 67//79 45//79 43//79 
f 71//79 41//79 39//79 
f 79//79 33//79 31//79 
f 87//79 85//79 25//79 
f 93//79 91//79 19//79 
f 11//79 9//79 101//79 
f 59//79 53//79 51//79 
f 69//79 43//79 41//79 
f 85//79 83//79 27//79 
f 95//79 93//79 17//79 
f 49//79 63//79 61//79 
f 89//79 87//79 23//79 
f 75//79 37//79 35//79 
f 56//79 106//79 3//79 
f 3//79 2//79 56//79 
f 51//79 61//79 59//79 
o mesh4
f 104//80 4//80 6//80 
f 102//80 6//80 8//80 
f 100//80 8//80 10//80 
f 98//80 10//80 12//80 
f 16//80 92//80 94//80 
f 18//80 90//80 92//80 
f 30//80 32//80 78//80 
f 46//80 48//80 62//80 
f 60//80 62//80 48//80 
f 8//80 100//80 102//80 
f 12//80 96//80 98//80 
f 14//80 94//80 96//80 
f 92//80 16//80 18//80 
f 22//80 86//80 88//80 
f 24//80 84//80 86//80 
f 80//80 28//80 30//80 
f 32//80 34//80 76//80 
f 34//80 36//80 74//80 
f 36//80 38//80 72//80 
f 38//80 40//80 70//80 
f 40//80 42//80 68//80 
f 48//80 50//80 60//80 
f 57//80 60//80 50//80 
f 10//80 98//80 100//80 
f 94//80 14//80 16//80 
f 20//80 88//80 90//80 
f 86//80 22//80 24//80 
f 26//80 82//80 84//80 
f 28//80 80//80 82//80 
f 76//80 78//80 32//80 
f 72//80 74//80 36//80 
f 68//80 70//80 40//80 
f 42//80 44//80 66//80 
f 44//80 46//80 64//80 
f 50//80 52//80 57//80 
f 96//80 12//80 14//80 
f 88//80 20//80 22//80 
f 82//80 26//80 28//80 
f 74//80 76//80 34//80 
f 66//80 68//80 42//80 
f 62//80 64//80 46//80 
f 90//80 18//80 20//80 
f 78//80 80//80 30//80 
f 64//80 66//80 44//80 
f 58//80 57//80 52//80 
f 84//80 24//80 26//80 
f 52//80 54//80 58//80 
f 55//80 1//80 4//80 
f 70//80 72//80 38//80 
f 6//80 102//80 104//80 
f 4//80 104//80 55//80 
o mesh5
f 53//81 59//81 58//81 
f 58//81 54//81 53//81 
