# OBJ generated by ONSHAPE BY PTC INC, 1.203 Units = meters
mtllib Assembly 4 - Shooter Funnel.mtl
g Shooter Funnel
v -0.149225 0.10414 -0.0762 
v -0.149225 0.10414 -0.1268 
v -0.147638 0.10414 -0.1268 
v -0.147638 0.10414 -0.0762 
v -0.149225 0.20574 -0.0762 
v -0.147638 0.20574 -0.0762 
v -0.149225 0.20574 -0.1268 
v -0.147638 0.20574 -0.1268 
v -0.147696 0.10414 -0.127473 
v -0.147652 0.10414 -0.127138 
v -0.149234 0.10414 -0.126999 
v -0.14926 0.10414 -0.127197 
v -0.147652 0.20574 -0.127138 
v -0.149234 0.20574 -0.126999 
v -0.147696 0.20574 -0.127473 
v -0.14926 0.20574 -0.127197 
v -0.178512 0.20574 -0.302238 
v -0.178512 0.10414 -0.302238 
v -0.180076 0.10414 -0.301962 
v -0.180076 0.20574 -0.301962 
vn 0 -1 0 
vn 0 0 1 
vn 0 1 0 
vn -1 0 0 
vn 1 0 0 
vn 0 -1 0 
vn 0 1 0 
vn 0.984808 0 -0.173648 
vn 0.996195 0 -0.0871557 
vn 1 0 -3.05311e-16 
vn 0.984808 0 -0.173648 
vn -0.173648 0 -0.984808 
vn 0 -1 0 
vn 0 1 0 
vn -0.984808 0 0.173648 
vn -0.996195 0 0.0871557 
vn -1 0 3.05311e-16 
vn -0.984808 0 0.173648 
vn -0.996195 0 0.0871557 
usemtl 0.301961_0.290196_0.262745_0.000000_0.423529
o mesh0
f 1//1 2//1 3//1 
f 3//1 4//1 1//1 
o mesh1
f 5//2 1//2 4//2 
f 4//2 6//2 5//2 
o mesh2
f 7//3 5//3 6//3 
f 6//3 8//3 7//3 
o mesh3
f 1//4 5//4 7//4 
f 7//4 2//4 1//4 
o mesh4
f 3//5 8//5 6//5 
f 6//5 4//5 3//5 
o mesh5
f 9//6 10//6 11//6 
f 10//6 3//6 2//6 
f 2//6 11//6 10//6 
f 11//6 12//6 9//6 
o mesh6
f 13//7 14//7 7//7 
f 13//7 15//7 16//7 
f 16//7 14//7 13//7 
f 7//7 8//7 13//7 
o mesh7
f 9//8 15//8 13//9 
f 10//9 13//9 8//10 
f 8//10 3//10 10//9 
f 13//9 10//9 9//8 
o mesh8
f 17//11 15//11 9//11 
f 9//11 18//11 17//11 
o mesh9
f 19//12 20//12 17//12 
f 17//12 18//12 19//12 
o mesh10
f 9//13 12//13 19//13 
f 19//13 18//13 9//13 
o mesh11
f 15//14 17//14 20//14 
f 20//14 16//14 15//14 
o mesh12
f 19//15 12//15 16//15 
f 16//15 20//15 19//15 
o mesh13
f 11//16 2//17 7//17 
f 12//18 11//16 14//19 
f 14//19 16//18 12//18 
f 7//17 14//19 11//16 
