# OBJ generated by ONSHAPE BY PTC INC, 1.203 Units = meters
mtllib Assembly 4 - Shooter Funnel (1).mtl
g Shooter Funnel
v -0.003175 0.10414 -0.1268 
v -0.003175 0.10414 -0.0762 
v -0.0047625 0.10414 -0.0762 
v -0.0047625 0.10414 -0.1268 
v -0.003175 0.20574 -0.0762 
v -0.0047625 0.20574 -0.0762 
v -0.003175 0.20574 -0.1268 
v -0.0047625 0.20574 -0.1268 
v -0.00474776 0.10414 -0.127138 
v -0.0031663 0.10414 -0.126999 
v -0.00470365 0.10414 -0.127473 
v -0.00314027 0.10414 -0.127197 
v -0.00470365 0.20574 -0.127473 
v -0.00474776 0.20574 -0.127138 
v -0.0031663 0.20574 -0.126999 
v -0.00314027 0.20574 -0.127197 
v 0.0261121 0.10414 -0.302238 
v 0.0261121 0.20574 -0.302238 
v 0.0276755 0.20574 -0.301962 
v 0.0276755 0.10414 -0.301962 
vn 0 -1 0 
vn 0 0 1 
vn 0 1 0 
vn 1 0 0 
vn -1 0 0 
vn -2.56111e-17 -1 0 
vn 2.56111e-17 1 0 
vn -1 2.56111e-17 1.80411e-16 
vn -0.996195 2.55136e-17 -0.0871557 
vn -0.984808 2.5222e-17 -0.173648 
vn 0.173648 0 -0.984808 
vn 0 1 0 
vn 0 -1 0 
vn 0.984808 0 0.173648 
vn 0.996195 -2.55136e-17 0.0871557 
vn 1 -2.56111e-17 -1.80411e-16 
usemtl 0.301961_0.290196_0.262745_0.000000_0.380392
o mesh0
f 1//1 2//1 3//1 
f 3//1 4//1 1//1 
o mesh1
f 5//2 6//2 3//2 
f 3//2 2//2 5//2 
o mesh2
f 5//3 7//3 8//3 
f 8//3 6//3 5//3 
o mesh3
f 1//4 7//4 5//4 
f 5//4 2//4 1//4 
o mesh4
f 3//5 6//5 8//5 
f 8//5 4//5 3//5 
o mesh5
f 4//6 9//6 10//6 
f 11//6 12//6 10//6 
f 10//6 9//6 11//6 
f 10//6 1//6 4//6 
o mesh6
f 13//7 14//7 15//7 
f 14//7 8//7 7//7 
f 7//7 15//7 14//7 
f 15//7 16//7 13//7 
o mesh7
f 4//8 8//8 14//9 
f 9//9 14//9 13//10 
f 13//10 11//10 9//9 
f 14//9 9//9 4//8 
o mesh8
f 17//10 11//10 13//10 
f 13//10 18//10 17//10 
o mesh9
f 19//11 20//11 17//11 
f 17//11 18//11 19//11 
o mesh10
f 13//12 16//12 19//12 
f 19//12 18//12 13//12 
o mesh11
f 11//13 17//13 20//13 
f 20//13 12//13 11//13 
o mesh12
f 19//14 16//14 12//14 
f 12//14 20//14 19//14 
o mesh13
f 10//15 12//14 16//14 
f 1//16 10//15 15//15 
f 15//15 7//16 1//16 
f 16//14 15//15 10//15 
