# OBJ generated by ONSHAPE BY PTC INC, 1.203 Units = meters
mtllib Assembly 4 - Shooter Hood (1).mtl
g Shooter Hood
v -0.1524 0.0785666 0.0762 
v -0.1524 0.0767882 0.0762 
v 0 0.0767882 0.0762 
v 0 0.0785666 0.0762 
v 0 0.0622521 -0.025394 
v 0 0.0644005 -0.0368102 
v -0.1524 0.0644005 -0.0368102 
v 0 0.0608965 -0.0138567 
v -0.1524 0.0622521 -0.025394 
v 0 0.0603401 -0.0022535 
v -0.1524 0.0608965 -0.0138567 
v 0 0.0605855 0.00936049 
v -0.1524 0.0603401 -0.0022535 
v 0 0.0616317 0.0209299 
v -0.1524 0.0605855 0.00936049 
v 0 0.0634735 0.0323995 
v -0.1524 0.0616317 0.0209299 
v 0 0.0661023 0.0437147 
v -0.1524 0.0634735 0.0323995 
v 0 0.0695055 0.0548216 
v -0.1524 0.0661023 0.0437147 
v 0 0.0736668 0.0656673 
v -0.1524 0.0695055 0.0548216 
v -0.1524 0.0736668 0.0656673 
v 0 0.123513 -0.300494 
v -0.1524 0.123513 -0.300494 
v -0.1524 0.121964 -0.300841 
v -0.1524 0.0628514 -0.0371574 
v -0.1524 0.060695 -0.0257131 
v -0.1524 0.0593277 -0.014148 
v -0.1524 0.0587561 -0.00251632 
v -0.1524 0.0677959 0.0547293 
v -0.1524 0.0719238 0.0656189 
v -0.1524 0.0589829 0.00912716 
v -0.1524 0.0600069 0.0207277 
v -0.1524 0.0618234 0.0322309 
v -0.1524 0.0644238 0.0435825 
v 0 0.060695 -0.0257131 
v 0 0.0628514 -0.0371574 
v 0 0.0593277 -0.014148 
v 0 0.121964 -0.300841 
v 0 0.0719238 0.0656189 
v 0 0.0677959 0.0547293 
v 0 0.0587561 -0.00251632 
v 0 0.0644238 0.0435825 
v 0 0.0618234 0.0322309 
v 0 0.0600069 0.0207277 
v 0 0.0589829 0.00912716 
vn 0 0 1 
vn 0 0.988548 0.150908 
vn 0 0.975781 0.21875 
vn 0 0.996604 0.0823458 
vn 0 0.988548 0.150908 
vn 0 0.99991 0.0133918 
vn 0 0.996604 0.0823458 
vn 0 0.998452 -0.0556261 
vn 0 0.99991 0.0133918 
vn 0 0.992235 -0.124379 
vn 0 0.998452 -0.0556261 
vn 0 0.981289 -0.192539 
vn 0 0.992235 -0.124379 
vn 0 0.965667 -0.259782 
vn 0 0.981289 -0.192539 
vn 0 0.945444 -0.325786 
vn 0 0.965667 -0.259782 
vn 0 0.920714 -0.390238 
vn 0 0.945444 -0.325786 
vn 0 0.891597 -0.45283 
vn 0 0.920714 -0.390238 
vn 0 0.975781 0.21875 
vn -1 0 0 
vn 1 0 0 
vn 0 0.21875 -0.975781 
vn 0 -0.975781 -0.21875 
vn 0 -0.893734 0.448598 
vn 0 -0.922371 0.386306 
vn 0 -0.946672 0.322198 
vn 0 -0.966524 0.256575 
vn 0 -0.981833 0.189747 
vn 0 -0.992527 0.122027 
vn 0 -0.998555 0.0537326 
vn 0 -0.99989 -0.0148139 
vn 0 -0.996525 -0.0832908 
vn 0 -0.988476 -0.151376 
vn 0 -0.975781 -0.21875 
usemtl 0.301961_0.290196_0.262745_0.000000_0.290196
o mesh0
f 1//1 2//1 3//1 
f 3//1 4//1 1//1 
o mesh1
f 5//2 6//3 7//3 
f 8//4 5//2 9//5 
f 10//6 8//4 11//7 
f 12//8 10//6 13//9 
f 14//10 12//8 15//11 
f 16//12 14//10 17//13 
f 18//14 16//12 19//15 
f 20//16 18//14 21//17 
f 22//18 20//16 23//19 
f 4//20 22//18 24//21 
f 24//21 1//20 4//20 
f 23//19 24//21 22//18 
f 21//17 23//19 20//16 
f 19//15 21//17 18//14 
f 17//13 19//15 16//12 
f 15//11 17//13 14//10 
f 13//9 15//11 12//8 
f 11//7 13//9 10//6 
f 9//5 11//7 8//4 
f 7//3 9//5 5//2 
o mesh2
f 7//22 6//22 25//22 
f 25//22 26//22 7//22 
o mesh3
f 26//23 27//23 28//23 
f 29//23 9//23 7//23 
f 7//23 28//23 29//23 
f 30//23 11//23 9//23 
f 9//23 29//23 30//23 
f 31//23 13//23 11//23 
f 32//23 23//23 21//23 
f 33//23 24//23 23//23 
f 11//23 30//23 31//23 
f 34//23 15//23 13//23 
f 35//23 17//23 15//23 
f 36//23 19//23 17//23 
f 37//23 21//23 19//23 
f 23//23 32//23 33//23 
f 13//23 31//23 34//23 
f 17//23 35//23 36//23 
f 21//23 37//23 32//23 
f 2//23 1//23 24//23 
f 15//23 34//23 35//23 
f 24//23 33//23 2//23 
f 19//23 36//23 37//23 
f 28//23 7//23 26//23 
o mesh4
f 38//24 39//24 6//24 
f 25//24 6//24 39//24 
f 40//24 38//24 5//24 
f 39//24 41//24 25//24 
f 3//24 42//24 22//24 
f 42//24 43//24 20//24 
f 44//24 40//24 8//24 
f 6//24 5//24 38//24 
f 20//24 22//24 42//24 
f 43//24 45//24 18//24 
f 46//24 47//24 14//24 
f 47//24 48//24 12//24 
f 48//24 44//24 10//24 
f 5//24 8//24 40//24 
f 18//24 20//24 43//24 
f 45//24 46//24 16//24 
f 12//24 14//24 47//24 
f 8//24 10//24 44//24 
f 16//24 18//24 45//24 
f 10//24 12//24 48//24 
f 14//24 16//24 46//24 
f 22//24 4//24 3//24 
o mesh5
f 26//25 25//25 41//25 
f 41//25 27//25 26//25 
o mesh6
f 41//26 39//26 28//26 
f 28//26 27//26 41//26 
o mesh7
f 3//27 2//27 33//28 
f 42//28 33//28 32//29 
f 43//29 32//29 37//30 
f 45//30 37//30 36//31 
f 46//31 36//31 35//32 
f 47//32 35//32 34//33 
f 48//33 34//33 31//34 
f 44//34 31//34 30//35 
f 40//35 30//35 29//36 
f 38//36 29//36 28//37 
f 28//37 39//37 38//36 
f 29//36 38//36 40//35 
f 30//35 40//35 44//34 
f 31//34 44//34 48//33 
f 34//33 48//33 47//32 
f 35//32 47//32 46//31 
f 36//31 46//31 45//30 
f 37//30 45//30 43//29 
f 32//29 43//29 42//28 
f 33//28 42//28 3//27 
